<svg width="1440" xmlns="http://www.w3.org/2000/svg" height="1024" id="screenshot-391ca617-4d2f-80dc-8008-b647a90d5e49" viewBox="0 0 1440 1024" xmlns:xlink="http://www.w3.org/1999/xlink" fill="none" version="1.1"><g id="shape-391ca617-4d2f-80dc-8008-b647a90d5e49"><defs><clipPath id="frame-clip-391ca617-4d2f-80dc-8008-b647a90d5e49-render-817" class="frame-clip frame-clip-def"><rect rx="0" ry="0" x="0" y="0" width="1440" height="1024" transform="matrix(1.000000, 0.000000, 0.000000, 1.000000, 0.000000, 0.000000)"/></clipPath></defs><g class="frame-container-wrapper"><g class="frame-container-blur"><g class="frame-container-shadows"><g clip-path="url(#frame-clip-391ca617-4d2f-80dc-8008-b647a90d5e49-render-817)" fill="none"><g class="fills" id="fills-391ca617-4d2f-80dc-8008-b647a90d5e49"><rect width="1440" height="1024" class="frame-background" x="0" transform="matrix(1.000000, 0.000000, 0.000000, 1.000000, 0.000000, 0.000000)" style="fill: rgb(255, 255, 255); fill-opacity: 1;" ry="0" rx="0" y="0"/></g><g class="frame-children"><g id="shape-391ca617-4d2f-80dc-8008-b6514e784f6d" width="1440" height="1024" rx="0" ry="0" style="fill: rgb(0, 0, 0);"><defs><linearGradient id="render-818-a" x1="0" y1="0" x2="1" y2="1"><stop offset="0" stop-color="#FBFDFF"/><stop offset="0.34" stop-color="#F4F8FF"/><stop offset="0.58" stop-color="#FBFAFF"/><stop offset="1" stop-color="#FFF6F3"/></linearGradient><linearGradient id="render-818-b" x1="0" y1="0" x2="1" y2="1"><stop offset="0" stop-color="#4D8EF7"/><stop offset="0.54" stop-color="#B9C9FF"/><stop offset="1" stop-color="#F28B7B"/></linearGradient><filter width="1.6" height="1.6" x="-0.3" id="render-818-c" data-old-y="-0.3" data-old-width="1.6" data-old-x="-0.3" y="-0.3" data-old-height="1.6"/></defs><g id="shape-391ca617-4d2f-80dc-8008-b6514e7a619e" style="display: none;"><g class="fills" id="fills-391ca617-4d2f-80dc-8008-b6514e7a619e"><rect width="1440" height="1024" x="0" transform="matrix(1.000000, 0.000000, 0.000000, 1.000000, 0.000000, 0.000000)" style="fill: none;" ry="0" fill="none" rx="0" y="0"/></g></g><g id="shape-391ca617-4d2f-80dc-8008-b6514e7a619f"><defs style="fill: rgb(0, 0, 0);"/></g><g id="shape-391ca617-4d2f-80dc-8008-b6514e7a61a0"><defs><linearGradient id="render-821-a" x1="0" y1="0" x2="1" y2="1"><stop offset="0" stop-color="#FBFDFF"/><stop offset="0.34" stop-color="#F4F8FF"/><stop offset="0.58" stop-color="#FBFAFF"/><stop offset="1" stop-color="#FFF6F3"/></linearGradient></defs><g class="fills" id="fills-391ca617-4d2f-80dc-8008-b6514e7a61a0"><rect width="1440" height="1024" x="0" transform="matrix(1.000000, 0.000000, 0.000000, 1.000000, 0.000000, 0.000000)" style="fill: url(&quot;#render-821-a&quot;);" ry="0" fill="url(#render-821-a)" rx="0" y="0"/></g></g><g id="shape-391ca617-4d2f-80dc-8008-b6514e7a61a1"><g class="fills" id="fills-391ca617-4d2f-80dc-8008-b6514e7a61a1"><rect rx="26" ry="26" x="34" y="34" transform="matrix(1.000000, 0.000000, 0.000000, 1.000000, 0.000000, 0.000000)" width="72" height="956" style="fill: rgb(36, 50, 75); fill-opacity: 0.035;"/></g></g><g id="shape-391ca617-4d2f-80dc-8008-b6514e7a61a2"><g class="fills" id="fills-391ca617-4d2f-80dc-8008-b6514e7a61a2"><rect rx="26" ry="26" x="30" y="30" transform="matrix(1.000000, 0.000000, 0.000000, 1.000000, 0.000000, 0.000000)" width="72" height="956" style="fill: rgb(36, 50, 75); fill-opacity: 0.055;"/></g></g><g id="shape-391ca617-4d2f-80dc-8008-b6514e7a61a3"><g class="fills" id="fills-391ca617-4d2f-80dc-8008-b6514e7a61a3"><rect rx="26" ry="26" x="26" y="24" transform="matrix(1.000000, 0.000000, 0.000000, 1.000000, 0.000000, 0.000000)" width="72" height="956" style="fill: rgb(255, 255, 255); fill-opacity: 0.78;"/></g><g id="strokes-c7024843-eb0f-805d-8008-b6679bb73e42-391ca617-4d2f-80dc-8008-b6514e7a61a3" class="strokes"><g class="stroke-shape"><rect rx="26" ry="26" x="26" y="24" transform="matrix(1.000000, 0.000000, 0.000000, 1.000000, 0.000000, 0.000000)" width="72" height="956" style="fill: none; stroke-width: 1; stroke: rgb(255, 255, 255); stroke-opacity: 0.98;"/></g></g></g><g id="shape-391ca617-4d2f-80dc-8008-b6514e7a8c08"><g class="fills" id="fills-391ca617-4d2f-80dc-8008-b6514e7a8c08"><rect width="70" height="954" x="27" transform="matrix(1.000000, 0.000000, 0.000000, 1.000000, 0.000000, 0.000000)" style="fill: none;" ry="25" fill="none" rx="25" y="25"/></g><g fill="none" id="strokes-c7024843-eb0f-805d-8008-b6679bb76f7e-391ca617-4d2f-80dc-8008-b6514e7a8c08" class="strokes"><g class="stroke-shape"><rect rx="25" ry="25" x="27" y="25" transform="matrix(1.000000, 0.000000, 0.000000, 1.000000, 0.000000, 0.000000)" width="70" height="954" style="fill: none; stroke-width: 1; stroke: rgb(217, 225, 236); stroke-opacity: 0.62;"/></g></g></g><g id="shape-391ca617-4d2f-80dc-8008-b6514e7a8c09" style="opacity: 0.98;"><g class="fills" id="fills-391ca617-4d2f-80dc-8008-b6514e7a8c09"><path d="M42,27L82,27" stroke-linecap="round"/></g><g stroke-linecap="round" id="strokes-c7024843-eb0f-805d-8008-b6679bb79d93-391ca617-4d2f-80dc-8008-b6514e7a8c09" class="strokes"><g class="stroke-shape"><path d="M42,27L82,27" style="fill: none; stroke-width: 1.4; stroke: rgb(255, 255, 255); stroke-opacity: 1; stroke-linecap: round;"/></g></g></g><g id="shape-391ca617-4d2f-80dc-8008-b6514e7a8c0a"><defs><linearGradient id="render-827-b" x1="0" y1="0" x2="1" y2="1"><stop offset="0" stop-color="#4D8EF7"/><stop offset="0.54" stop-color="#B9C9FF"/><stop offset="1" stop-color="#F28B7B"/></linearGradient></defs><g class="fills" id="fills-391ca617-4d2f-80dc-8008-b6514e7a8c0a"><rect width="42" height="42" x="41" transform="matrix(1.000000, 0.000000, 0.000000, 1.000000, 0.000000, 0.000000)" style="fill: url(&quot;#render-827-b&quot;);" ry="14" fill="url(#render-827-b)" rx="14" y="44"/></g></g><g id="shape-391ca617-4d2f-80dc-8008-b6514e7a8c0b"><text x="62" y="71" text-anchor="middle" font-family="Pretendard, Noto Sans KR, sans-serif" font-size="16" font-weight="800" transform="matrix(1.000000, 0.000000, 0.000000, 1.000000, 0.000000, 0.000000) " style="fill: rgb(255, 255, 255);">L</text></g><g id="shape-391ca617-4d2f-80dc-8008-b6514e7a8c0d" rx="0" ry="0" style="fill: rgb(0, 0, 0);"><g id="shape-391ca617-4d2f-80dc-8008-b6514e7ad31d"><text text-anchor="middle" font-family="Pretendard, Noto Sans KR, sans-serif" x="62" y="136" font-size="18" transform="matrix(1.000000, 0.000000, 0.000000, 1.000000, 0.000000, 0.000000) " style="fill: rgb(112, 121, 134);">●</text></g><g id="shape-391ca617-4d2f-80dc-8008-b6514e7ad31f"><text text-anchor="middle" font-family="Pretendard, Noto Sans KR, sans-serif" x="62" y="155" font-size="9.5" transform="matrix(1.000000, 0.000000, 0.000000, 1.000000, 0.000000, 0.000000) " style="fill: rgb(112, 121, 134);">오늘</text></g><g id="shape-391ca617-4d2f-80dc-8008-b6514e7ad321"><text text-anchor="middle" font-family="Pretendard, Noto Sans KR, sans-serif" x="62" y="204" font-size="18" transform="matrix(1.000000, 0.000000, 0.000000, 1.000000, 0.000000, 0.000000) " style="fill: rgb(112, 121, 134);">✓</text></g><g id="shape-391ca617-4d2f-80dc-8008-b6514e7ad323"><text text-anchor="middle" font-family="Pretendard, Noto Sans KR, sans-serif" x="62" y="223" font-size="9.5" transform="matrix(1.000000, 0.000000, 0.000000, 1.000000, 0.000000, 0.000000) " style="fill: rgb(112, 121, 134);">업무</text></g><g id="shape-391ca617-4d2f-80dc-8008-b6514e7ad325"><g class="fills" id="fills-391ca617-4d2f-80dc-8008-b6514e7ad325"><rect width="56" font-family="Pretendard, Noto Sans KR, sans-serif" height="56" x="34" transform="matrix(1.000000, 0.000000, 0.000000, 1.000000, 0.000000, 0.000000)" text-anchor="middle" style="fill: rgb(238, 244, 255);" ry="15" rx="15" y="246"/></g></g><g id="shape-391ca617-4d2f-80dc-8008-b6514e7ad326"><text text-anchor="middle" font-family="Pretendard, Noto Sans KR, sans-serif" x="62" y="272" font-size="18" transform="matrix(1.000000, 0.000000, 0.000000, 1.000000, 0.000000, 0.000000) " style="fill: rgb(77, 142, 247);">◇</text></g><g id="shape-391ca617-4d2f-80dc-8008-b6514e7ad328"><text text-anchor="middle" font-family="Pretendard, Noto Sans KR, sans-serif" x="62" y="291" font-size="9.5" font-weight="700" transform="matrix(1.000000, 0.000000, 0.000000, 1.000000, 0.000000, 0.000000) " style="fill: rgb(77, 142, 247);">프로젝트</text></g><g id="shape-391ca617-4d2f-80dc-8008-b6514e7ad32a"><text text-anchor="middle" font-family="Pretendard, Noto Sans KR, sans-serif" x="62" y="340" font-size="18" transform="matrix(1.000000, 0.000000, 0.000000, 1.000000, 0.000000, 0.000000) " style="fill: rgb(112, 121, 134);">↗</text></g><g id="shape-391ca617-4d2f-80dc-8008-b6514e7b2c75"><text text-anchor="middle" font-family="Pretendard, Noto Sans KR, sans-serif" x="62" y="359" font-size="9.5" transform="matrix(1.000000, 0.000000, 0.000000, 1.000000, 0.000000, 0.000000) " style="fill: rgb(112, 121, 134);">기록</text></g><g id="shape-391ca617-4d2f-80dc-8008-b6514e7b2c77"><text text-anchor="middle" font-family="Pretendard, Noto Sans KR, sans-serif" x="62" y="408" font-size="18" transform="matrix(1.000000, 0.000000, 0.000000, 1.000000, 0.000000, 0.000000) " style="fill: rgb(112, 121, 134);">⌘</text></g><g id="shape-391ca617-4d2f-80dc-8008-b6514e7b2c79"><text text-anchor="middle" font-family="Pretendard, Noto Sans KR, sans-serif" x="62" y="427" font-size="9.5" transform="matrix(1.000000, 0.000000, 0.000000, 1.000000, 0.000000, 0.000000) " style="fill: rgb(112, 121, 134);">업무 지식</text></g><g id="shape-391ca617-4d2f-80dc-8008-b6514e7b2c7b"><text text-anchor="middle" font-family="Pretendard, Noto Sans KR, sans-serif" x="62" y="910" font-size="18" transform="matrix(1.000000, 0.000000, 0.000000, 1.000000, 0.000000, 0.000000) " style="fill: rgb(112, 121, 134);">⌁</text></g><g id="shape-391ca617-4d2f-80dc-8008-b6514e7b2c7d"><text text-anchor="middle" font-family="Pretendard, Noto Sans KR, sans-serif" x="62" y="929" font-size="10" transform="matrix(1.000000, 0.000000, 0.000000, 1.000000, 0.000000, 0.000000) " style="fill: rgb(112, 121, 134);">임시함</text></g><g id="shape-391ca617-4d2f-80dc-8008-b6514e7b2c7f"><text text-anchor="middle" font-family="Pretendard, Noto Sans KR, sans-serif" x="62" y="960" font-size="17" transform="matrix(1.000000, 0.000000, 0.000000, 1.000000, 0.000000, 0.000000) " style="fill: rgb(112, 121, 134);">◐</text></g><g id="shape-391ca617-4d2f-80dc-8008-b6514e7b2c81"><text text-anchor="middle" font-family="Pretendard, Noto Sans KR, sans-serif" x="62" y="979" font-size="10" transform="matrix(1.000000, 0.000000, 0.000000, 1.000000, 0.000000, 0.000000) " style="fill: rgb(112, 121, 134);">테마</text></g></g><g id="shape-391ca617-4d2f-80dc-8008-b6514e7b2c83"><text x="138" y="48" font-family="Pretendard, Noto Sans KR, sans-serif" font-size="11" transform="matrix(1.000000, 0.000000, 0.000000, 1.000000, 0.000000, 0.000000) " style="fill: rgb(152, 161, 171);">프로젝트 · 이슈 / 확인사항</text></g><g id="shape-391ca617-4d2f-80dc-8008-b6514e7b2c85"><text x="138" y="82" font-family="Pretendard, Noto Sans KR, sans-serif" font-size="30" font-weight="800" transform="matrix(1.000000, 0.000000, 0.000000, 1.000000, 0.000000, 0.000000) " style="fill: rgb(21, 24, 33);">이슈와 확인사항</text></g><g id="shape-391ca617-4d2f-80dc-8008-b6514e7b6db8" filter="url(#render-847-c)" rx="0" ry="0" style="fill: rgb(0, 0, 0);"><defs><filter width="1.6" height="1.6" x="-0.3" id="render-847-c" data-old-y="-0.3" data-old-width="1.6" data-old-x="-0.3" y="-0.3" data-old-height="1.6"/></defs><g id="shape-391ca617-4d2f-80dc-8008-b6514e7b6db9"><g class="fills" id="fills-391ca617-4d2f-80dc-8008-b6514e7b6db9"><rect rx="14" ry="14" x="922" y="36" transform="matrix(1.000000, 0.000000, 0.000000, 1.000000, 0.000000, 0.000000)" width="360" height="42" style="fill: rgb(255, 255, 255); fill-opacity: 0.66;"/></g><g id="strokes-c7024843-eb0f-805d-8008-b6679bbaa41f-391ca617-4d2f-80dc-8008-b6514e7b6db9" class="strokes"><g class="stroke-shape"><rect rx="14" ry="14" x="922" y="36" transform="matrix(1.000000, 0.000000, 0.000000, 1.000000, 0.000000, 0.000000)" width="360" height="42" style="fill: none; stroke-width: 1; stroke: rgb(255, 255, 255); stroke-opacity: 1;"/></g></g></g></g><g id="shape-391ca617-4d2f-80dc-8008-b6514e7b6dba"><text x="942" y="62" font-family="Pretendard, Noto Sans KR, sans-serif" font-size="14" transform="matrix(1.000000, 0.000000, 0.000000, 1.000000, 0.000000, 0.000000) " style="fill: rgb(152, 161, 171);">⌕</text></g><g id="shape-391ca617-4d2f-80dc-8008-b6514e7b6dbc"><text x="964" y="62" font-family="Pretendard, Noto Sans KR, sans-serif" font-size="12" transform="matrix(1.000000, 0.000000, 0.000000, 1.000000, 0.000000, 0.000000) " style="fill: rgb(122, 131, 142);">이슈, 질문, 기능 검색</text></g><g id="shape-391ca617-4d2f-80dc-8008-b6514e7b6dbe"><g class="fills" id="fills-391ca617-4d2f-80dc-8008-b6514e7b6dbe"><rect rx="6" ry="6" x="1233" y="49" transform="matrix(1.000000, 0.000000, 0.000000, 1.000000, 0.000000, 0.000000)" width="37" height="18" style="fill: rgb(245, 247, 251);"/></g><g id="strokes-c7024843-eb0f-805d-8008-b6679bbb3541-391ca617-4d2f-80dc-8008-b6514e7b6dbe" class="strokes"><g class="stroke-shape"><rect rx="6" ry="6" x="1233" y="49" transform="matrix(1.000000, 0.000000, 0.000000, 1.000000, 0.000000, 0.000000)" width="37" height="18" style="fill: none; stroke-width: 1; stroke: rgb(228, 232, 239); stroke-opacity: 1;"/></g></g></g><g id="shape-391ca617-4d2f-80dc-8008-b6514e7b6dbf"><text x="1251.5" y="61.5" text-anchor="middle" font-family="Pretendard, Noto Sans KR, sans-serif" font-size="8.5" transform="matrix(1.000000, 0.000000, 0.000000, 1.000000, 0.000000, 0.000000) " style="fill: rgb(153, 162, 172);">Ctrl K</text></g><g id="shape-391ca617-4d2f-80dc-8008-b6514e7b6dc1"><g class="fills" id="fills-391ca617-4d2f-80dc-8008-b6514e7b6dc1"><rect rx="13" ry="13" x="1294" y="36" transform="matrix(1.000000, 0.000000, 0.000000, 1.000000, 0.000000, 0.000000)" width="42" height="42" style="fill: rgb(255, 255, 255);"/></g><g id="strokes-c7024843-eb0f-805d-8008-b6679bbb7c25-391ca617-4d2f-80dc-8008-b6514e7b6dc1" class="strokes"><g class="stroke-shape"><rect rx="13" ry="13" x="1294" y="36" transform="matrix(1.000000, 0.000000, 0.000000, 1.000000, 0.000000, 0.000000)" width="42" height="42" style="fill: none; stroke-width: 1; stroke: rgb(228, 232, 239); stroke-opacity: 1;"/></g></g></g><g id="shape-391ca617-4d2f-80dc-8008-b6514e7b6dc2"><text x="1315" y="63" text-anchor="middle" font-family="Pretendard, Noto Sans KR, sans-serif" font-size="18" transform="matrix(1.000000, 0.000000, 0.000000, 1.000000, 0.000000, 0.000000) " style="fill: rgb(89, 97, 108);">＋</text></g><g id="shape-391ca617-4d2f-80dc-8008-b6514e7b6dc4"><g class="fills" id="fills-391ca617-4d2f-80dc-8008-b6514e7b6dc4"><rect rx="16" ry="16" x="138" y="112" transform="matrix(1.000000, 0.000000, 0.000000, 1.000000, 0.000000, 0.000000)" width="1176" height="54" style="fill: rgb(255, 255, 255);"/></g><g id="strokes-c7024843-eb0f-805d-8008-b6679bbb8a42-391ca617-4d2f-80dc-8008-b6514e7b6dc4" class="strokes"><g class="stroke-shape"><rect rx="16" ry="16" x="138" y="112" transform="matrix(1.000000, 0.000000, 0.000000, 1.000000, 0.000000, 0.000000)" width="1176" height="54" style="fill: none; stroke-width: 1; stroke: rgb(228, 232, 239); stroke-opacity: 1;"/></g></g></g><g id="shape-391ca617-4d2f-80dc-8008-b6514e7b6dc5"><text x="237" y="144" text-anchor="middle" font-family="Pretendard, Noto Sans KR, sans-serif" font-size="11" font-weight="500" transform="matrix(1.000000, 0.000000, 0.000000, 1.000000, 0.000000, 0.000000) " style="fill: rgb(110, 118, 130);">산출물</text></g><g id="shape-391ca617-4d2f-80dc-8008-b6514e7b6dc7"><text x="421" y="144" text-anchor="middle" font-family="Pretendard, Noto Sans KR, sans-serif" font-size="11" font-weight="500" transform="matrix(1.000000, 0.000000, 0.000000, 1.000000, 0.000000, 0.000000) " style="fill: rgb(110, 118, 130);">요구사항 분석</text></g><g id="shape-391ca617-4d2f-80dc-8008-b6514e7bbe93"><text x="617" y="144" text-anchor="middle" font-family="Pretendard, Noto Sans KR, sans-serif" font-size="11" font-weight="500" transform="matrix(1.000000, 0.000000, 0.000000, 1.000000, 0.000000, 0.000000) " style="fill: rgb(110, 118, 130);">테스트 설계</text></g><g id="shape-391ca617-4d2f-80dc-8008-b6514e7bbe95"><text x="808" y="144" text-anchor="middle" font-family="Pretendard, Noto Sans KR, sans-serif" font-size="11" font-weight="500" transform="matrix(1.000000, 0.000000, 0.000000, 1.000000, 0.000000, 0.000000) " style="fill: rgb(110, 118, 130);">테스트 수행</text></g><g id="shape-391ca617-4d2f-80dc-8008-b6514e7bbe97"><g class="fills" id="fills-391ca617-4d2f-80dc-8008-b6514e7bbe97"><rect rx="11" ry="11" x="902" y="121" transform="matrix(1.000000, 0.000000, 0.000000, 1.000000, 0.000000, 0.000000)" width="178" height="36" style="fill: rgb(238, 244, 255);"/></g></g><g id="shape-391ca617-4d2f-80dc-8008-b6514e7bbe98"><text x="990" y="144" text-anchor="middle" font-family="Pretendard, Noto Sans KR, sans-serif" font-size="11" font-weight="800" transform="matrix(1.000000, 0.000000, 0.000000, 1.000000, 0.000000, 0.000000) " style="fill: rgb(77, 142, 247);">이슈 / 확인사항</text></g><g id="shape-391ca617-4d2f-80dc-8008-b6514e7bbe9a"><text x="1190" y="144" text-anchor="middle" font-family="Pretendard, Noto Sans KR, sans-serif" font-size="11" font-weight="500" transform="matrix(1.000000, 0.000000, 0.000000, 1.000000, 0.000000, 0.000000) " style="fill: rgb(110, 118, 130);">기록</text></g><g id="shape-391ca617-4d2f-80dc-8008-b6514e7bbe9c" filter="url(#render-863-c)" rx="0" ry="0" style="fill: rgb(0, 0, 0);"><defs><filter width="1.6" height="1.6" x="-0.3" id="render-863-c" data-old-y="-0.3" data-old-width="1.6" data-old-x="-0.3" y="-0.3" data-old-height="1.6"/></defs><g id="shape-391ca617-4d2f-80dc-8008-b6514e7bbe9d"><g class="fills" id="fills-391ca617-4d2f-80dc-8008-b6514e7bbe9d"><rect rx="18" ry="18" x="138" y="184" transform="matrix(1.000000, 0.000000, 0.000000, 1.000000, 0.000000, 0.000000)" width="760" height="766" style="fill: rgb(255, 255, 255);"/></g><g id="strokes-c7024843-eb0f-805d-8008-b6679bbcd542-391ca617-4d2f-80dc-8008-b6514e7bbe9d" class="strokes"><g class="stroke-shape"><rect rx="18" ry="18" x="138" y="184" transform="matrix(1.000000, 0.000000, 0.000000, 1.000000, 0.000000, 0.000000)" width="760" height="766" style="fill: none; stroke-width: 1; stroke: rgb(228, 232, 239); stroke-opacity: 1;"/></g></g></g></g><g id="shape-391ca617-4d2f-80dc-8008-b6514e7bbe9e"><text x="160" y="218" font-family="Pretendard, Noto Sans KR, sans-serif" font-size="15" font-weight="800" transform="matrix(1.000000, 0.000000, 0.000000, 1.000000, 0.000000, 0.000000) " style="fill: rgb(21, 24, 33);">이슈</text></g><g id="shape-391ca617-4d2f-80dc-8008-b6514e7bbea0"><text x="874" y="218" text-anchor="end" font-family="Pretendard, Noto Sans KR, sans-serif" font-size="10" font-weight="400" transform="matrix(1.000000, 0.000000, 0.000000, 1.000000, 0.000000, 0.000000) " style="fill: rgb(154, 163, 173);">18개</text></g><g id="shape-391ca617-4d2f-80dc-8008-b6514e7bbea2"><g class="fills" id="fills-391ca617-4d2f-80dc-8008-b6514e7bbea2"><rect rx="14" ry="14" x="160" y="252" transform="matrix(1.000000, 0.000000, 0.000000, 1.000000, 0.000000, 0.000000)" width="716" height="116" style="fill: rgb(248, 250, 253);"/></g><g id="strokes-c7024843-eb0f-805d-8008-b6679bbd4eda-391ca617-4d2f-80dc-8008-b6514e7bbea2" class="strokes"><g class="stroke-shape"><rect rx="14" ry="14" x="160" y="252" transform="matrix(1.000000, 0.000000, 0.000000, 1.000000, 0.000000, 0.000000)" width="716" height="116" style="fill: none; stroke-width: 1; stroke: rgb(228, 232, 239); stroke-opacity: 1;"/></g></g></g><g id="shape-391ca617-4d2f-80dc-8008-b6514e7bbea3"><text x="182" y="280" font-family="Pretendard, Noto Sans KR, sans-serif" font-size="10" font-weight="800" transform="matrix(1.000000, 0.000000, 0.000000, 1.000000, 0.000000, 0.000000) " style="fill: rgb(77, 142, 247);">BUG-014</text></g><g id="shape-391ca617-4d2f-80dc-8008-b6514e7bc0d3"><text x="254" y="280" font-family="Pretendard, Noto Sans KR, sans-serif" font-size="9.5" font-weight="700" transform="matrix(1.000000, 0.000000, 0.000000, 1.000000, 0.000000, 0.000000) " style="fill: rgb(212, 111, 97);">FAIL</text></g><g id="shape-391ca617-4d2f-80dc-8008-b6514e7bc0d5"><text x="182" y="308" font-family="Pretendard, Noto Sans KR, sans-serif" font-size="11.5" font-weight="800" transform="matrix(1.000000, 0.000000, 0.000000, 1.000000, 0.000000, 0.000000) " style="fill: rgb(21, 24, 33);">iOS 비밀번호 오류 문구가 기획과 다름</text></g><g id="shape-391ca617-4d2f-80dc-8008-b6514e7bc0d7"><text x="182" y="334" font-family="Pretendard, Noto Sans KR, sans-serif" font-size="9.5" font-weight="400" transform="matrix(1.000000, 0.000000, 0.000000, 1.000000, 0.000000, 0.000000) " style="fill: rgb(110, 118, 130);">연결 TC SIGN-002 · 재현됨</text></g><g id="shape-391ca617-4d2f-80dc-8008-b6514e7bc0d9"><g class="fills" id="fills-391ca617-4d2f-80dc-8008-b6514e7bc0d9"><rect rx="14" ry="14" x="160" y="384" transform="matrix(1.000000, 0.000000, 0.000000, 1.000000, 0.000000, 0.000000)" width="716" height="116" style="fill: rgb(248, 250, 253);"/></g><g id="strokes-c7024843-eb0f-805d-8008-b6679bbde4d1-391ca617-4d2f-80dc-8008-b6514e7bc0d9" class="strokes"><g class="stroke-shape"><rect rx="14" ry="14" x="160" y="384" transform="matrix(1.000000, 0.000000, 0.000000, 1.000000, 0.000000, 0.000000)" width="716" height="116" style="fill: none; stroke-width: 1; stroke: rgb(228, 232, 239); stroke-opacity: 1;"/></g></g></g><g id="shape-391ca617-4d2f-80dc-8008-b6514e7bc0da"><text x="182" y="412" font-family="Pretendard, Noto Sans KR, sans-serif" font-size="10" font-weight="800" transform="matrix(1.000000, 0.000000, 0.000000, 1.000000, 0.000000, 0.000000) " style="fill: rgb(77, 142, 247);">BUG-015</text></g><g id="shape-391ca617-4d2f-80dc-8008-b6514e7bc0dc"><text x="254" y="412" font-family="Pretendard, Noto Sans KR, sans-serif" font-size="9.5" font-weight="700" transform="matrix(1.000000, 0.000000, 0.000000, 1.000000, 0.000000, 0.000000) " style="fill: rgb(212, 111, 97);">FAIL</text></g><g id="shape-391ca617-4d2f-80dc-8008-b6514e7bc0de"><text x="182" y="440" font-family="Pretendard, Noto Sans KR, sans-serif" font-size="11.5" font-weight="800" transform="matrix(1.000000, 0.000000, 0.000000, 1.000000, 0.000000, 0.000000) " style="fill: rgb(21, 24, 33);">로그인 5회 실패 후 계정 잠금 미동작</text></g><g id="shape-391ca617-4d2f-80dc-8008-b6514e7bc0e0"><text x="182" y="466" font-family="Pretendard, Noto Sans KR, sans-serif" font-size="9.5" font-weight="400" transform="matrix(1.000000, 0.000000, 0.000000, 1.000000, 0.000000, 0.000000) " style="fill: rgb(110, 118, 130);">연결 TC LOGIN-019 · 기획 확인 중</text></g><g id="shape-391ca617-4d2f-80dc-8008-b6514e7bc0e2"><g class="fills" id="fills-391ca617-4d2f-80dc-8008-b6514e7bc0e2"><rect rx="14" ry="14" x="160" y="516" transform="matrix(1.000000, 0.000000, 0.000000, 1.000000, 0.000000, 0.000000)" width="716" height="116" style="fill: rgb(248, 250, 253);"/></g><g id="strokes-c7024843-eb0f-805d-8008-b6679bbeaa40-391ca617-4d2f-80dc-8008-b6514e7bc0e2" class="strokes"><g class="stroke-shape"><rect rx="14" ry="14" x="160" y="516" transform="matrix(1.000000, 0.000000, 0.000000, 1.000000, 0.000000, 0.000000)" width="716" height="116" style="fill: none; stroke-width: 1; stroke: rgb(228, 232, 239); stroke-opacity: 1;"/></g></g></g><g id="shape-391ca617-4d2f-80dc-8008-b6514e7bc0e3"><text x="182" y="544" font-family="Pretendard, Noto Sans KR, sans-serif" font-size="10" font-weight="800" transform="matrix(1.000000, 0.000000, 0.000000, 1.000000, 0.000000, 0.000000) " style="fill: rgb(77, 142, 247);">BUG-011</text></g><g id="shape-391ca617-4d2f-80dc-8008-b6514e7bc0e5"><text x="254" y="544" font-family="Pretendard, Noto Sans KR, sans-serif" font-size="9.5" font-weight="700" transform="matrix(1.000000, 0.000000, 0.000000, 1.000000, 0.000000, 0.000000) " style="fill: rgb(78, 140, 98);">PASS</text></g><g id="shape-391ca617-4d2f-80dc-8008-b6514e7bc0e7"><text x="182" y="572" font-family="Pretendard, Noto Sans KR, sans-serif" font-size="11.5" font-weight="800" transform="matrix(1.000000, 0.000000, 0.000000, 1.000000, 0.000000, 0.000000) " style="fill: rgb(21, 24, 33);">회원가입 완료 후 홈 이동 정상</text></g><g id="shape-391ca617-4d2f-80dc-8008-b6514e7c39b8"><text x="182" y="598" font-family="Pretendard, Noto Sans KR, sans-serif" font-size="9.5" font-weight="400" transform="matrix(1.000000, 0.000000, 0.000000, 1.000000, 0.000000, 0.000000) " style="fill: rgb(110, 118, 130);">연결 TC SIGN-001 · 종료</text></g><g id="shape-391ca617-4d2f-80dc-8008-b6514e7c39ba" filter="url(#render-882-c)" rx="0" ry="0" style="fill: rgb(0, 0, 0);"><defs><filter width="1.6" height="1.6" x="-0.3" id="render-882-c" data-old-y="-0.3" data-old-width="1.6" data-old-x="-0.3" y="-0.3" data-old-height="1.6"/></defs><g id="shape-391ca617-4d2f-80dc-8008-b6514e7c39bb"><g class="fills" id="fills-391ca617-4d2f-80dc-8008-b6514e7c39bb"><rect rx="18" ry="18" x="916" y="184" transform="matrix(1.000000, 0.000000, 0.000000, 1.000000, 0.000000, 0.000000)" width="398" height="766" style="fill: rgb(255, 255, 255);"/></g><g id="strokes-c7024843-eb0f-805d-8008-b6679bbf7ead-391ca617-4d2f-80dc-8008-b6514e7c39bb" class="strokes"><g class="stroke-shape"><rect rx="18" ry="18" x="916" y="184" transform="matrix(1.000000, 0.000000, 0.000000, 1.000000, 0.000000, 0.000000)" width="398" height="766" style="fill: none; stroke-width: 1; stroke: rgb(228, 232, 239); stroke-opacity: 1;"/></g></g></g></g><g id="shape-391ca617-4d2f-80dc-8008-b6514e7c39bc"><text x="938" y="218" font-family="Pretendard, Noto Sans KR, sans-serif" font-size="15" font-weight="800" transform="matrix(1.000000, 0.000000, 0.000000, 1.000000, 0.000000, 0.000000) " style="fill: rgb(21, 24, 33);">확인사항</text></g><g id="shape-391ca617-4d2f-80dc-8008-b6514e7c39be"><text x="1290" y="218" text-anchor="end" font-family="Pretendard, Noto Sans KR, sans-serif" font-size="10" font-weight="400" transform="matrix(1.000000, 0.000000, 0.000000, 1.000000, 0.000000, 0.000000) " style="fill: rgb(212, 111, 97);">4개</text></g><g id="shape-391ca617-4d2f-80dc-8008-b6514e7c39c0"><g class="fills" id="fills-391ca617-4d2f-80dc-8008-b6514e7c39c0"><rect rx="13" ry="13" x="938" y="252" transform="matrix(1.000000, 0.000000, 0.000000, 1.000000, 0.000000, 0.000000)" width="354" height="104" style="fill: rgb(255, 247, 244);"/></g><g id="strokes-c7024843-eb0f-805d-8008-b6679bbfbc84-391ca617-4d2f-80dc-8008-b6514e7c39c0" class="strokes"><g class="stroke-shape"><rect rx="13" ry="13" x="938" y="252" transform="matrix(1.000000, 0.000000, 0.000000, 1.000000, 0.000000, 0.000000)" width="354" height="104" style="fill: none; stroke-width: 1; stroke: rgb(240, 221, 216); stroke-opacity: 1;"/></g></g></g><g id="shape-391ca617-4d2f-80dc-8008-b6514e7c39c1"><text x="954" y="280" font-family="Pretendard, Noto Sans KR, sans-serif" font-size="11" font-weight="800" transform="matrix(1.000000, 0.000000, 0.000000, 1.000000, 0.000000, 0.000000) " style="fill: rgb(21, 24, 33);">로그인 실패 횟수 제한</text></g><g id="shape-391ca617-4d2f-80dc-8008-b6514e7c39c3"><text x="954" y="302" font-family="Pretendard, Noto Sans KR, sans-serif" font-size="9.5" font-weight="400" transform="matrix(1.000000, 0.000000, 0.000000, 1.000000, 0.000000, 0.000000) " style="fill: rgb(110, 118, 130);">기획 미정</text></g><g id="shape-391ca617-4d2f-80dc-8008-b6514e7c39c5"><text x="954" y="328" font-family="Pretendard, Noto Sans KR, sans-serif" font-size="9.5" font-weight="700" transform="matrix(1.000000, 0.000000, 0.000000, 1.000000, 0.000000, 0.000000) " style="fill: rgb(212, 111, 97);">질문 대기</text></g><g id="shape-391ca617-4d2f-80dc-8008-b6514e7c39c7"><g class="fills" id="fills-391ca617-4d2f-80dc-8008-b6514e7c39c7"><rect rx="13" ry="13" x="938" y="370" transform="matrix(1.000000, 0.000000, 0.000000, 1.000000, 0.000000, 0.000000)" width="354" height="104" style="fill: rgb(255, 247, 244);"/></g><g id="strokes-c7024843-eb0f-805d-8008-b6679bc02188-391ca617-4d2f-80dc-8008-b6514e7c39c7" class="strokes"><g class="stroke-shape"><rect rx="13" ry="13" x="938" y="370" transform="matrix(1.000000, 0.000000, 0.000000, 1.000000, 0.000000, 0.000000)" width="354" height="104" style="fill: none; stroke-width: 1; stroke: rgb(240, 221, 216); stroke-opacity: 1;"/></g></g></g><g id="shape-391ca617-4d2f-80dc-8008-b6514e7c39c8"><text x="954" y="398" font-family="Pretendard, Noto Sans KR, sans-serif" font-size="11" font-weight="800" transform="matrix(1.000000, 0.000000, 0.000000, 1.000000, 0.000000, 0.000000) " style="fill: rgb(21, 24, 33);">계정 잠금 정책</text></g><g id="shape-391ca617-4d2f-80dc-8008-b6514e7c39ca"><text x="954" y="420" font-family="Pretendard, Noto Sans KR, sans-serif" font-size="9.5" font-weight="400" transform="matrix(1.000000, 0.000000, 0.000000, 1.000000, 0.000000, 0.000000) " style="fill: rgb(110, 118, 130);">기획 미정</text></g><g id="shape-391ca617-4d2f-80dc-8008-b6514e7c6a41"><text x="954" y="446" font-family="Pretendard, Noto Sans KR, sans-serif" font-size="9.5" font-weight="700" transform="matrix(1.000000, 0.000000, 0.000000, 1.000000, 0.000000, 0.000000) " style="fill: rgb(212, 111, 97);">질문 대기</text></g><g id="shape-391ca617-4d2f-80dc-8008-b6514e7c6a43"><g class="fills" id="fills-391ca617-4d2f-80dc-8008-b6514e7c6a43"><rect rx="13" ry="13" x="938" y="488" transform="matrix(1.000000, 0.000000, 0.000000, 1.000000, 0.000000, 0.000000)" width="354" height="104" style="fill: rgb(255, 247, 244);"/></g><g id="strokes-c7024843-eb0f-805d-8008-b6679bc09410-391ca617-4d2f-80dc-8008-b6514e7c6a43" class="strokes"><g class="stroke-shape"><rect rx="13" ry="13" x="938" y="488" transform="matrix(1.000000, 0.000000, 0.000000, 1.000000, 0.000000, 0.000000)" width="354" height="104" style="fill: none; stroke-width: 1; stroke: rgb(240, 221, 216); stroke-opacity: 1;"/></g></g></g><g id="shape-391ca617-4d2f-80dc-8008-b6514e7c6a44"><text x="954" y="516" font-family="Pretendard, Noto Sans KR, sans-serif" font-size="11" font-weight="800" transform="matrix(1.000000, 0.000000, 0.000000, 1.000000, 0.000000, 0.000000) " style="fill: rgb(21, 24, 33);">약관 재동의 조건</text></g><g id="shape-391ca617-4d2f-80dc-8008-b6514e7c6a46"><text x="954" y="538" font-family="Pretendard, Noto Sans KR, sans-serif" font-size="9.5" font-weight="400" transform="matrix(1.000000, 0.000000, 0.000000, 1.000000, 0.000000, 0.000000) " style="fill: rgb(110, 118, 130);">Figma/기획 불일치</text></g><g id="shape-391ca617-4d2f-80dc-8008-b6514e7c6a48"><text x="954" y="564" font-family="Pretendard, Noto Sans KR, sans-serif" font-size="9.5" font-weight="700" transform="matrix(1.000000, 0.000000, 0.000000, 1.000000, 0.000000, 0.000000) " style="fill: rgb(212, 111, 97);">확인 중</text></g><g id="shape-391ca617-4d2f-80dc-8008-b6514e7c6a4a"><g class="fills" id="fills-391ca617-4d2f-80dc-8008-b6514e7c6a4a"><rect rx="13" ry="13" x="938" y="606" transform="matrix(1.000000, 0.000000, 0.000000, 1.000000, 0.000000, 0.000000)" width="354" height="104" style="fill: rgb(255, 247, 244);"/></g><g id="strokes-c7024843-eb0f-805d-8008-b6679bc11f1c-391ca617-4d2f-80dc-8008-b6514e7c6a4a" class="strokes"><g class="stroke-shape"><rect rx="13" ry="13" x="938" y="606" transform="matrix(1.000000, 0.000000, 0.000000, 1.000000, 0.000000, 0.000000)" width="354" height="104" style="fill: none; stroke-width: 1; stroke: rgb(240, 221, 216); stroke-opacity: 1;"/></g></g></g><g id="shape-391ca617-4d2f-80dc-8008-b6514e7c6a4b"><text x="954" y="634" font-family="Pretendard, Noto Sans KR, sans-serif" font-size="11" font-weight="800" transform="matrix(1.000000, 0.000000, 0.000000, 1.000000, 0.000000, 0.000000) " style="fill: rgb(21, 24, 33);">푸시 알림 기본값</text></g><g id="shape-391ca617-4d2f-80dc-8008-b6514e7c6a4d"><text x="954" y="656" font-family="Pretendard, Noto Sans KR, sans-serif" font-size="9.5" font-weight="400" transform="matrix(1.000000, 0.000000, 0.000000, 1.000000, 0.000000, 0.000000) " style="fill: rgb(110, 118, 130);">산출물 명시 없음</text></g><g id="shape-391ca617-4d2f-80dc-8008-b6514e7c6a4f"><text x="954" y="682" font-family="Pretendard, Noto Sans KR, sans-serif" font-size="9.5" font-weight="700" transform="matrix(1.000000, 0.000000, 0.000000, 1.000000, 0.000000, 0.000000) " style="fill: rgb(78, 140, 98);">확인 완료</text></g><g id="shape-391ca617-4d2f-80dc-8008-b6514e7c6a51"><g class="fills" id="fills-391ca617-4d2f-80dc-8008-b6514e7c6a51"><rect rx="13" ry="13" x="938" y="744" transform="matrix(1.000000, 0.000000, 0.000000, 1.000000, 0.000000, 0.000000)" width="354" height="76" style="fill: rgb(241, 246, 255);"/></g><g id="strokes-c7024843-eb0f-805d-8008-b6679bc1adb1-391ca617-4d2f-80dc-8008-b6514e7c6a51" class="strokes"><g class="stroke-shape"><rect rx="13" ry="13" x="938" y="744" transform="matrix(1.000000, 0.000000, 0.000000, 1.000000, 0.000000, 0.000000)" width="354" height="76" style="fill: none; stroke-width: 1; stroke: rgb(216, 229, 250); stroke-opacity: 1;"/></g></g></g><g id="shape-391ca617-4d2f-80dc-8008-b6514e7c6a52"><text x="954" y="772" font-family="Pretendard, Noto Sans KR, sans-serif" font-size="11" font-weight="800" transform="matrix(1.000000, 0.000000, 0.000000, 1.000000, 0.000000, 0.000000) " style="fill: rgb(21, 24, 33);">질문 묶음 만들기</text></g><g id="shape-391ca617-4d2f-80dc-8008-b6514e7c6a54"><text x="954" y="794" font-family="Pretendard, Noto Sans KR, sans-serif" font-size="9.5" font-weight="400" transform="matrix(1.000000, 0.000000, 0.000000, 1.000000, 0.000000, 0.000000) " style="fill: rgb(110, 118, 130);">확인 필요 항목을 한 번에 정리</text></g></g></g></g></g></g></g></g></svg>