<svg width="1440" xmlns="http://www.w3.org/2000/svg" height="1024" id="screenshot-391ca617-4d2f-80dc-8008-b65086faff73" viewBox="0 0 1440 1024" xmlns:xlink="http://www.w3.org/1999/xlink" fill="none" version="1.1"><g id="shape-391ca617-4d2f-80dc-8008-b65086faff73"><defs><clipPath id="frame-clip-391ca617-4d2f-80dc-8008-b65086faff73-render-285" class="frame-clip frame-clip-def"><rect rx="0" ry="0" x="0" y="0" width="1440" height="1024" transform="matrix(1.000000, 0.000000, 0.000000, 1.000000, 0.000000, 0.000000)"/></clipPath></defs><g class="frame-container-wrapper"><g class="frame-container-blur"><g class="frame-container-shadows"><g clip-path="url(#frame-clip-391ca617-4d2f-80dc-8008-b65086faff73-render-285)" fill="none"><g class="fills" id="fills-391ca617-4d2f-80dc-8008-b65086faff73"><rect width="1440" height="1024" class="frame-background" x="0" transform="matrix(1.000000, 0.000000, 0.000000, 1.000000, 0.000000, 0.000000)" style="fill: rgb(255, 255, 255); fill-opacity: 1;" ry="0" rx="0" y="0"/></g><g class="frame-children"><g id="shape-391ca617-4d2f-80dc-8008-b6510f2aae50" width="1440" height="1024" rx="0" ry="0" style="fill: rgb(0, 0, 0);"><defs><linearGradient id="render-286-d" x1="0" y1="0" x2="1" y2="1"><stop offset="0" stop-color="#F4F8FF"/><stop offset="0.56" stop-color="#FBFAFF"/><stop offset="1" stop-color="#FFF6F3"/></linearGradient><linearGradient id="render-286-a" x1="0" y1="0" x2="1" y2="1"><stop offset="0" stop-color="#FBFDFF"/><stop offset="0.34" stop-color="#F4F8FF"/><stop offset="0.58" stop-color="#FBFAFF"/><stop offset="1" stop-color="#FFF6F3"/></linearGradient><linearGradient id="render-286-b" x1="0" y1="0" x2="1" y2="1"><stop offset="0" stop-color="#4D8EF7"/><stop offset="0.54" stop-color="#B9C9FF"/><stop offset="1" stop-color="#F28B7B"/></linearGradient><filter width="1.6" height="1.6" x="-0.3" id="render-286-c" data-old-y="-0.3" data-old-width="1.6" data-old-x="-0.3" y="-0.3" data-old-height="1.6"/></defs><g id="shape-391ca617-4d2f-80dc-8008-b6510f2be635" style="display: none;"><g class="fills" id="fills-391ca617-4d2f-80dc-8008-b6510f2be635"><rect width="1440" height="1024" x="0" transform="matrix(1.000000, 0.000000, 0.000000, 1.000000, 0.000000, 0.000000)" style="fill: none;" ry="0" fill="none" rx="0" y="0"/></g></g><g id="shape-391ca617-4d2f-80dc-8008-b6510f2be636"><defs style="fill: rgb(0, 0, 0);"/></g><g id="shape-391ca617-4d2f-80dc-8008-b6510f2be637"><defs><linearGradient id="render-289-a" x1="0" y1="0" x2="1" y2="1"><stop offset="0" stop-color="#FBFDFF"/><stop offset="0.34" stop-color="#F4F8FF"/><stop offset="0.58" stop-color="#FBFAFF"/><stop offset="1" stop-color="#FFF6F3"/></linearGradient></defs><g class="fills" id="fills-391ca617-4d2f-80dc-8008-b6510f2be637"><rect width="1440" height="1024" x="0" transform="matrix(1.000000, 0.000000, 0.000000, 1.000000, 0.000000, 0.000000)" style="fill: url(&quot;#render-289-a&quot;);" ry="0" fill="url(#render-289-a)" rx="0" y="0"/></g></g><g id="shape-391ca617-4d2f-80dc-8008-b6510f2be638"><g class="fills" id="fills-391ca617-4d2f-80dc-8008-b6510f2be638"><rect rx="26" ry="26" x="34" y="34" transform="matrix(1.000000, 0.000000, 0.000000, 1.000000, 0.000000, 0.000000)" width="72" height="956" style="fill: rgb(36, 50, 75); fill-opacity: 0.035;"/></g></g><g id="shape-391ca617-4d2f-80dc-8008-b6510f2be639"><g class="fills" id="fills-391ca617-4d2f-80dc-8008-b6510f2be639"><rect rx="26" ry="26" x="30" y="30" transform="matrix(1.000000, 0.000000, 0.000000, 1.000000, 0.000000, 0.000000)" width="72" height="956" style="fill: rgb(36, 50, 75); fill-opacity: 0.055;"/></g></g><g id="shape-391ca617-4d2f-80dc-8008-b6510f2be63a"><g class="fills" id="fills-391ca617-4d2f-80dc-8008-b6510f2be63a"><rect rx="26" ry="26" x="26" y="24" transform="matrix(1.000000, 0.000000, 0.000000, 1.000000, 0.000000, 0.000000)" width="72" height="956" style="fill: rgb(255, 255, 255); fill-opacity: 0.78;"/></g><g id="strokes-c7024843-eb0f-805d-8008-b6679b3cddc8-391ca617-4d2f-80dc-8008-b6510f2be63a" class="strokes"><g class="stroke-shape"><rect rx="26" ry="26" x="26" y="24" transform="matrix(1.000000, 0.000000, 0.000000, 1.000000, 0.000000, 0.000000)" width="72" height="956" style="fill: none; stroke-width: 1; stroke: rgb(255, 255, 255); stroke-opacity: 0.98;"/></g></g></g><g id="shape-391ca617-4d2f-80dc-8008-b6510f2be63b"><g class="fills" id="fills-391ca617-4d2f-80dc-8008-b6510f2be63b"><rect width="70" height="954" x="27" transform="matrix(1.000000, 0.000000, 0.000000, 1.000000, 0.000000, 0.000000)" style="fill: none;" ry="25" fill="none" rx="25" y="25"/></g><g fill="none" id="strokes-c7024843-eb0f-805d-8008-b6679b3cddc9-391ca617-4d2f-80dc-8008-b6510f2be63b" class="strokes"><g class="stroke-shape"><rect rx="25" ry="25" x="27" y="25" transform="matrix(1.000000, 0.000000, 0.000000, 1.000000, 0.000000, 0.000000)" width="70" height="954" style="fill: none; stroke-width: 1; stroke: rgb(217, 225, 236); stroke-opacity: 0.62;"/></g></g></g><g id="shape-391ca617-4d2f-80dc-8008-b6510f2c0c96" style="opacity: 0.98;"><g class="fills" id="fills-391ca617-4d2f-80dc-8008-b6510f2c0c96"><path d="M42,27L82,27" stroke-linecap="round"/></g><g stroke-linecap="round" id="strokes-c7024843-eb0f-805d-8008-b6679b3d063a-391ca617-4d2f-80dc-8008-b6510f2c0c96" class="strokes"><g class="stroke-shape"><path d="M42,27L82,27" style="fill: none; stroke-width: 1.4; stroke: rgb(255, 255, 255); stroke-opacity: 1; stroke-linecap: round;"/></g></g></g><g id="shape-391ca617-4d2f-80dc-8008-b6510f2c0c97"><defs><linearGradient id="render-295-b" x1="0" y1="0" x2="1" y2="1"><stop offset="0" stop-color="#4D8EF7"/><stop offset="0.54" stop-color="#B9C9FF"/><stop offset="1" stop-color="#F28B7B"/></linearGradient></defs><g class="fills" id="fills-391ca617-4d2f-80dc-8008-b6510f2c0c97"><rect width="42" height="42" x="41" transform="matrix(1.000000, 0.000000, 0.000000, 1.000000, 0.000000, 0.000000)" style="fill: url(&quot;#render-295-b&quot;);" ry="14" fill="url(#render-295-b)" rx="14" y="44"/></g></g><g id="shape-391ca617-4d2f-80dc-8008-b6510f2c0c98"><text x="62" y="71" text-anchor="middle" font-family="Pretendard, Noto Sans KR, sans-serif" font-size="16" font-weight="800" transform="matrix(1.000000, 0.000000, 0.000000, 1.000000, 0.000000, 0.000000) " style="fill: rgb(255, 255, 255);">L</text></g><g id="shape-391ca617-4d2f-80dc-8008-b6510f2c0c9a" rx="0" ry="0" style="fill: rgb(0, 0, 0);"><g id="shape-391ca617-4d2f-80dc-8008-b6510f2c0c9b"><text text-anchor="middle" font-family="Pretendard, Noto Sans KR, sans-serif" x="62" y="136" font-size="18" transform="matrix(1.000000, 0.000000, 0.000000, 1.000000, 0.000000, 0.000000) " style="fill: rgb(112, 121, 134);">●</text></g><g id="shape-391ca617-4d2f-80dc-8008-b6510f2c0c9d"><text text-anchor="middle" font-family="Pretendard, Noto Sans KR, sans-serif" x="62" y="155" font-size="9.5" transform="matrix(1.000000, 0.000000, 0.000000, 1.000000, 0.000000, 0.000000) " style="fill: rgb(112, 121, 134);">오늘</text></g><g id="shape-391ca617-4d2f-80dc-8008-b6510f2c0c9f"><text text-anchor="middle" font-family="Pretendard, Noto Sans KR, sans-serif" x="62" y="204" font-size="18" transform="matrix(1.000000, 0.000000, 0.000000, 1.000000, 0.000000, 0.000000) " style="fill: rgb(112, 121, 134);">✓</text></g><g id="shape-391ca617-4d2f-80dc-8008-b6510f2c6fd1"><text text-anchor="middle" font-family="Pretendard, Noto Sans KR, sans-serif" x="62" y="223" font-size="9.5" transform="matrix(1.000000, 0.000000, 0.000000, 1.000000, 0.000000, 0.000000) " style="fill: rgb(112, 121, 134);">업무</text></g><g id="shape-391ca617-4d2f-80dc-8008-b6510f2c6fd3"><g class="fills" id="fills-391ca617-4d2f-80dc-8008-b6510f2c6fd3"><rect width="56" font-family="Pretendard, Noto Sans KR, sans-serif" height="56" x="34" transform="matrix(1.000000, 0.000000, 0.000000, 1.000000, 0.000000, 0.000000)" text-anchor="middle" style="fill: rgb(238, 244, 255);" ry="15" rx="15" y="246"/></g></g><g id="shape-391ca617-4d2f-80dc-8008-b6510f2c6fd4"><text text-anchor="middle" font-family="Pretendard, Noto Sans KR, sans-serif" x="62" y="272" font-size="18" transform="matrix(1.000000, 0.000000, 0.000000, 1.000000, 0.000000, 0.000000) " style="fill: rgb(77, 142, 247);">◇</text></g><g id="shape-391ca617-4d2f-80dc-8008-b6510f2c6fd6"><text text-anchor="middle" font-family="Pretendard, Noto Sans KR, sans-serif" x="62" y="291" font-size="9.5" font-weight="700" transform="matrix(1.000000, 0.000000, 0.000000, 1.000000, 0.000000, 0.000000) " style="fill: rgb(77, 142, 247);">프로젝트</text></g><g id="shape-391ca617-4d2f-80dc-8008-b6510f2c6fd8"><text text-anchor="middle" font-family="Pretendard, Noto Sans KR, sans-serif" x="62" y="340" font-size="18" transform="matrix(1.000000, 0.000000, 0.000000, 1.000000, 0.000000, 0.000000) " style="fill: rgb(112, 121, 134);">↗</text></g><g id="shape-391ca617-4d2f-80dc-8008-b6510f2c6fda"><text text-anchor="middle" font-family="Pretendard, Noto Sans KR, sans-serif" x="62" y="359" font-size="9.5" transform="matrix(1.000000, 0.000000, 0.000000, 1.000000, 0.000000, 0.000000) " style="fill: rgb(112, 121, 134);">기록</text></g><g id="shape-391ca617-4d2f-80dc-8008-b6510f2c6fdc"><text text-anchor="middle" font-family="Pretendard, Noto Sans KR, sans-serif" x="62" y="408" font-size="18" transform="matrix(1.000000, 0.000000, 0.000000, 1.000000, 0.000000, 0.000000) " style="fill: rgb(112, 121, 134);">⌘</text></g><g id="shape-391ca617-4d2f-80dc-8008-b6510f2c6fde"><text text-anchor="middle" font-family="Pretendard, Noto Sans KR, sans-serif" x="62" y="427" font-size="9.5" transform="matrix(1.000000, 0.000000, 0.000000, 1.000000, 0.000000, 0.000000) " style="fill: rgb(112, 121, 134);">업무 지식</text></g><g id="shape-391ca617-4d2f-80dc-8008-b6510f2c6fe0"><text text-anchor="middle" font-family="Pretendard, Noto Sans KR, sans-serif" x="62" y="910" font-size="18" transform="matrix(1.000000, 0.000000, 0.000000, 1.000000, 0.000000, 0.000000) " style="fill: rgb(112, 121, 134);">⌁</text></g><g id="shape-391ca617-4d2f-80dc-8008-b6510f2c9271"><text text-anchor="middle" font-family="Pretendard, Noto Sans KR, sans-serif" x="62" y="929" font-size="10" transform="matrix(1.000000, 0.000000, 0.000000, 1.000000, 0.000000, 0.000000) " style="fill: rgb(112, 121, 134);">임시함</text></g><g id="shape-391ca617-4d2f-80dc-8008-b6510f2c9273"><text text-anchor="middle" font-family="Pretendard, Noto Sans KR, sans-serif" x="62" y="960" font-size="17" transform="matrix(1.000000, 0.000000, 0.000000, 1.000000, 0.000000, 0.000000) " style="fill: rgb(112, 121, 134);">◐</text></g><g id="shape-391ca617-4d2f-80dc-8008-b6510f2c9275"><text text-anchor="middle" font-family="Pretendard, Noto Sans KR, sans-serif" x="62" y="979" font-size="10" transform="matrix(1.000000, 0.000000, 0.000000, 1.000000, 0.000000, 0.000000) " style="fill: rgb(112, 121, 134);">테마</text></g></g><g id="shape-391ca617-4d2f-80dc-8008-b6510f2c9277"><text x="138" y="48" font-family="Pretendard, Noto Sans KR, sans-serif" font-size="11" transform="matrix(1.000000, 0.000000, 0.000000, 1.000000, 0.000000, 0.000000) " style="fill: rgb(152, 161, 171);">프로젝트</text></g><g id="shape-391ca617-4d2f-80dc-8008-b6510f2c9279"><text x="138" y="82" font-family="Pretendard, Noto Sans KR, sans-serif" font-size="30" font-weight="800" transform="matrix(1.000000, 0.000000, 0.000000, 1.000000, 0.000000, 0.000000) " style="fill: rgb(21, 24, 33);">QA 프로젝트</text></g><g id="shape-391ca617-4d2f-80dc-8008-b6510f2c927b" filter="url(#render-315-c)" rx="0" ry="0" style="fill: rgb(0, 0, 0);"><defs><filter width="1.6" height="1.6" x="-0.3" id="render-315-c" data-old-y="-0.3" data-old-width="1.6" data-old-x="-0.3" y="-0.3" data-old-height="1.6"/></defs><g id="shape-391ca617-4d2f-80dc-8008-b6510f2c927c"><g class="fills" id="fills-391ca617-4d2f-80dc-8008-b6510f2c927c"><rect rx="14" ry="14" x="922" y="36" transform="matrix(1.000000, 0.000000, 0.000000, 1.000000, 0.000000, 0.000000)" width="360" height="42" style="fill: rgb(255, 255, 255); fill-opacity: 0.66;"/></g><g id="strokes-c7024843-eb0f-805d-8008-b6679b401b37-391ca617-4d2f-80dc-8008-b6510f2c927c" class="strokes"><g class="stroke-shape"><rect rx="14" ry="14" x="922" y="36" transform="matrix(1.000000, 0.000000, 0.000000, 1.000000, 0.000000, 0.000000)" width="360" height="42" style="fill: none; stroke-width: 1; stroke: rgb(255, 255, 255); stroke-opacity: 1;"/></g></g></g></g><g id="shape-391ca617-4d2f-80dc-8008-b6510f2c927d"><text x="942" y="62" font-family="Pretendard, Noto Sans KR, sans-serif" font-size="14" transform="matrix(1.000000, 0.000000, 0.000000, 1.000000, 0.000000, 0.000000) " style="fill: rgb(152, 161, 171);">⌕</text></g><g id="shape-391ca617-4d2f-80dc-8008-b6510f2c927f"><text x="964" y="62" font-family="Pretendard, Noto Sans KR, sans-serif" font-size="12" transform="matrix(1.000000, 0.000000, 0.000000, 1.000000, 0.000000, 0.000000) " style="fill: rgb(122, 131, 142);">프로젝트 검색</text></g><g id="shape-391ca617-4d2f-80dc-8008-b6510f2cd2c1"><g class="fills" id="fills-391ca617-4d2f-80dc-8008-b6510f2cd2c1"><rect rx="6" ry="6" x="1233" y="49" transform="matrix(1.000000, 0.000000, 0.000000, 1.000000, 0.000000, 0.000000)" width="37" height="18" style="fill: rgb(245, 247, 251);"/></g><g id="strokes-c7024843-eb0f-805d-8008-b6679b405312-391ca617-4d2f-80dc-8008-b6510f2cd2c1" class="strokes"><g class="stroke-shape"><rect rx="6" ry="6" x="1233" y="49" transform="matrix(1.000000, 0.000000, 0.000000, 1.000000, 0.000000, 0.000000)" width="37" height="18" style="fill: none; stroke-width: 1; stroke: rgb(228, 232, 239); stroke-opacity: 1;"/></g></g></g><g id="shape-391ca617-4d2f-80dc-8008-b6510f2cd2c2"><text x="1251.5" y="61.5" text-anchor="middle" font-family="Pretendard, Noto Sans KR, sans-serif" font-size="8.5" transform="matrix(1.000000, 0.000000, 0.000000, 1.000000, 0.000000, 0.000000) " style="fill: rgb(153, 162, 172);">Ctrl K</text></g><g id="shape-391ca617-4d2f-80dc-8008-b6510f2cd2c4"><g class="fills" id="fills-391ca617-4d2f-80dc-8008-b6510f2cd2c4"><rect rx="13" ry="13" x="1294" y="36" transform="matrix(1.000000, 0.000000, 0.000000, 1.000000, 0.000000, 0.000000)" width="42" height="42" style="fill: rgb(255, 255, 255);"/></g><g id="strokes-c7024843-eb0f-805d-8008-b6679b40af82-391ca617-4d2f-80dc-8008-b6510f2cd2c4" class="strokes"><g class="stroke-shape"><rect rx="13" ry="13" x="1294" y="36" transform="matrix(1.000000, 0.000000, 0.000000, 1.000000, 0.000000, 0.000000)" width="42" height="42" style="fill: none; stroke-width: 1; stroke: rgb(228, 232, 239); stroke-opacity: 1;"/></g></g></g><g id="shape-391ca617-4d2f-80dc-8008-b6510f2cd2c5"><text x="1315" y="63" text-anchor="middle" font-family="Pretendard, Noto Sans KR, sans-serif" font-size="18" transform="matrix(1.000000, 0.000000, 0.000000, 1.000000, 0.000000, 0.000000) " style="fill: rgb(89, 97, 108);">＋</text></g><g id="shape-391ca617-4d2f-80dc-8008-b6510f2cd2c7" filter="url(#render-323-c)" rx="0" ry="0" style="fill: rgb(0, 0, 0);"><defs><filter width="1.6" height="1.6" x="-0.3" id="render-323-c" data-old-y="-0.3" data-old-width="1.6" data-old-x="-0.3" y="-0.3" data-old-height="1.6"/></defs><g id="shape-391ca617-4d2f-80dc-8008-b6510f2cd2c8"><defs><linearGradient id="render-324-d" x1="0" y1="0" x2="1" y2="1"><stop offset="0" stop-color="#F4F8FF"/><stop offset="0.56" stop-color="#FBFAFF"/><stop offset="1" stop-color="#FFF6F3"/></linearGradient></defs><g class="fills" id="fills-391ca617-4d2f-80dc-8008-b6510f2cd2c8"><rect width="1176" height="100" x="138" transform="matrix(1.000000, 0.000000, 0.000000, 1.000000, 0.000000, 0.000000)" style="fill: url(&quot;#render-324-d&quot;);" ry="22" fill="url(#render-324-d)" rx="22" y="112"/></g><g fill="url(#render-324-d)" id="strokes-c7024843-eb0f-805d-8008-b6679b417274-391ca617-4d2f-80dc-8008-b6510f2cd2c8" class="strokes"><g class="stroke-shape"><rect rx="22" ry="22" x="138" y="112" transform="matrix(1.000000, 0.000000, 0.000000, 1.000000, 0.000000, 0.000000)" width="1176" height="100" style="fill: none; stroke-width: 1; stroke: rgb(228, 232, 239); stroke-opacity: 1;"/></g></g></g></g><g id="shape-391ca617-4d2f-80dc-8008-b6510f2cd2c9"><text x="166" y="146" font-family="Pretendard, Noto Sans KR, sans-serif" font-size="17" font-weight="800" transform="matrix(1.000000, 0.000000, 0.000000, 1.000000, 0.000000, 0.000000) " style="fill: rgb(21, 24, 33);">프로젝트마다 테스트 범위와 양식을 다르게 가져갈 수 있어요.</text></g><g id="shape-391ca617-4d2f-80dc-8008-b6510f2cd2cb"><text x="166" y="176" font-family="Pretendard, Noto Sans KR, sans-serif" font-size="11" font-weight="400" transform="matrix(1.000000, 0.000000, 0.000000, 1.000000, 0.000000, 0.000000) " style="fill: rgb(110, 118, 130);">기능 QA만 있는 프로젝트도, API/성능까지 포함하는 프로젝트도 같은 구조에서 확장됩니다.</text></g><g id="shape-391ca617-4d2f-80dc-8008-b6510f2cd2cd"><g class="fills" id="fills-391ca617-4d2f-80dc-8008-b6510f2cd2cd"><rect rx="11" ry="11" x="1160" y="138" transform="matrix(1.000000, 0.000000, 0.000000, 1.000000, 0.000000, 0.000000)" width="126" height="38" style="fill: rgb(21, 24, 33);"/></g></g><g id="shape-391ca617-4d2f-80dc-8008-b6510f2cd2ce"><text x="1223" y="162" text-anchor="middle" font-family="Pretendard, Noto Sans KR, sans-serif" font-size="11" font-weight="700" transform="matrix(1.000000, 0.000000, 0.000000, 1.000000, 0.000000, 0.000000) " style="fill: rgb(255, 255, 255);">＋ 새 프로젝트</text></g><g id="shape-391ca617-4d2f-80dc-8008-b6510f2cd2d0" filter="url(#render-329-c)" rx="0" ry="0" style="fill: rgb(0, 0, 0);"><defs><filter width="1.6" height="1.6" x="-0.3" id="render-329-c" data-old-y="-0.3" data-old-width="1.6" data-old-x="-0.3" y="-0.3" data-old-height="1.6"/></defs><g id="shape-391ca617-4d2f-80dc-8008-b6510f2d2204"><g class="fills" id="fills-391ca617-4d2f-80dc-8008-b6510f2d2204"><rect rx="20" ry="20" x="138" y="236" transform="matrix(1.000000, 0.000000, 0.000000, 1.000000, 0.000000, 0.000000)" width="1176" height="190" style="fill: rgb(255, 255, 255);"/></g><g id="strokes-c7024843-eb0f-805d-8008-b6679b42102b-391ca617-4d2f-80dc-8008-b6510f2d2204" class="strokes"><g class="stroke-shape"><rect rx="20" ry="20" x="138" y="236" transform="matrix(1.000000, 0.000000, 0.000000, 1.000000, 0.000000, 0.000000)" width="1176" height="190" style="fill: none; stroke-width: 1; stroke: rgb(228, 232, 239); stroke-opacity: 1;"/></g></g></g></g><g id="shape-391ca617-4d2f-80dc-8008-b6510f2d2205"><text x="166" y="272" font-family="Pretendard, Noto Sans KR, sans-serif" font-size="10" font-weight="800" transform="matrix(1.000000, 0.000000, 0.000000, 1.000000, 0.000000, 0.000000) " style="fill: rgb(77, 142, 247);">진행 중</text></g><g id="shape-391ca617-4d2f-80dc-8008-b6510f2d2207"><text x="166" y="308" font-family="Pretendard, Noto Sans KR, sans-serif" font-size="20" font-weight="800" transform="matrix(1.000000, 0.000000, 0.000000, 1.000000, 0.000000, 0.000000) " style="fill: rgb(21, 24, 33);">고객사 A 모바일 서비스 개편 QA</text></g><g id="shape-391ca617-4d2f-80dc-8008-b6510f2d2209"><text x="166" y="338" font-family="Pretendard, Noto Sans KR, sans-serif" font-size="11" font-weight="500" transform="matrix(1.000000, 0.000000, 0.000000, 1.000000, 0.000000, 0.000000) " style="fill: rgb(110, 118, 130);">기능 · UI/UX · 회귀</text></g><g id="shape-391ca617-4d2f-80dc-8008-b6510f2d220b"><text x="166" y="364" font-family="Pretendard, Noto Sans KR, sans-serif" font-size="10" font-weight="400" transform="matrix(1.000000, 0.000000, 0.000000, 1.000000, 0.000000, 0.000000) " style="fill: rgb(154, 163, 173);">산출물 5 · TC 212 · Draft 46</text></g><g id="shape-391ca617-4d2f-80dc-8008-b6510f2d220d"><text x="1248" y="308" text-anchor="end" font-family="Pretendard, Noto Sans KR, sans-serif" font-size="28" font-weight="800" transform="matrix(1.000000, 0.000000, 0.000000, 1.000000, 0.000000, 0.000000) " style="fill: rgb(21, 24, 33);">62%</text></g><g id="shape-391ca617-4d2f-80dc-8008-b6510f2d220f"><g class="fills" id="fills-391ca617-4d2f-80dc-8008-b6510f2d220f"><rect rx="2.5" ry="2.5" x="1058" y="346" transform="matrix(1.000000, 0.000000, 0.000000, 1.000000, 0.000000, 0.000000)" width="190" height="5" style="fill: rgb(232, 235, 240);"/></g></g><g id="shape-391ca617-4d2f-80dc-8008-b6510f2d2210"><defs><linearGradient id="render-337-b" x1="0" y1="0" x2="1" y2="1"><stop offset="0" stop-color="#4D8EF7"/><stop offset="0.54" stop-color="#B9C9FF"/><stop offset="1" stop-color="#F28B7B"/></linearGradient></defs><g class="fills" id="fills-391ca617-4d2f-80dc-8008-b6510f2d2210"><rect width="117.80000000000018" height="5" x="1058" transform="matrix(1.000000, 0.000000, 0.000000, 1.000000, 0.000000, 0.000000)" style="fill: url(&quot;#render-337-b&quot;);" ry="2.5" fill="url(#render-337-b)" rx="2.5" y="346"/></g></g><g id="shape-391ca617-4d2f-80dc-8008-b6510f2d2211" filter="url(#render-338-c)" rx="0" ry="0" style="fill: rgb(0, 0, 0);"><defs><filter width="1.6" height="1.6" x="-0.3" id="render-338-c" data-old-y="-0.3" data-old-width="1.6" data-old-x="-0.3" y="-0.3" data-old-height="1.6"/></defs><g id="shape-391ca617-4d2f-80dc-8008-b6510f2d2212"><g class="fills" id="fills-391ca617-4d2f-80dc-8008-b6510f2d2212"><rect rx="20" ry="20" x="138" y="444" transform="matrix(1.000000, 0.000000, 0.000000, 1.000000, 0.000000, 0.000000)" width="1176" height="190" style="fill: rgb(255, 255, 255);"/></g><g id="strokes-c7024843-eb0f-805d-8008-b6679b4399e1-391ca617-4d2f-80dc-8008-b6510f2d2212" class="strokes"><g class="stroke-shape"><rect rx="20" ry="20" x="138" y="444" transform="matrix(1.000000, 0.000000, 0.000000, 1.000000, 0.000000, 0.000000)" width="1176" height="190" style="fill: none; stroke-width: 1; stroke: rgb(228, 232, 239); stroke-opacity: 1;"/></g></g></g></g><g id="shape-391ca617-4d2f-80dc-8008-b6510f2d2213"><text x="166" y="480" font-family="Pretendard, Noto Sans KR, sans-serif" font-size="10" font-weight="800" transform="matrix(1.000000, 0.000000, 0.000000, 1.000000, 0.000000, 0.000000) " style="fill: rgb(77, 142, 247);">준비 중</text></g><g id="shape-391ca617-4d2f-80dc-8008-b6510f2d2215"><text x="166" y="516" font-family="Pretendard, Noto Sans KR, sans-serif" font-size="20" font-weight="800" transform="matrix(1.000000, 0.000000, 0.000000, 1.000000, 0.000000, 0.000000) " style="fill: rgb(21, 24, 33);">고객사 B 관리자 Web QA</text></g><g id="shape-391ca617-4d2f-80dc-8008-b6510f2d6183"><text x="166" y="546" font-family="Pretendard, Noto Sans KR, sans-serif" font-size="11" font-weight="500" transform="matrix(1.000000, 0.000000, 0.000000, 1.000000, 0.000000, 0.000000) " style="fill: rgb(110, 118, 130);">기능 · 호환성</text></g><g id="shape-391ca617-4d2f-80dc-8008-b6510f2d6185"><text x="166" y="572" font-family="Pretendard, Noto Sans KR, sans-serif" font-size="10" font-weight="400" transform="matrix(1.000000, 0.000000, 0.000000, 1.000000, 0.000000, 0.000000) " style="fill: rgb(154, 163, 173);">산출물 2 · TC Template 미설정</text></g><g id="shape-391ca617-4d2f-80dc-8008-b6510f2d6187"><text x="1248" y="516" text-anchor="end" font-family="Pretendard, Noto Sans KR, sans-serif" font-size="28" font-weight="800" transform="matrix(1.000000, 0.000000, 0.000000, 1.000000, 0.000000, 0.000000) " style="fill: rgb(21, 24, 33);">18%</text></g><g id="shape-391ca617-4d2f-80dc-8008-b6510f2d6189"><g class="fills" id="fills-391ca617-4d2f-80dc-8008-b6510f2d6189"><rect rx="2.5" ry="2.5" x="1058" y="554" transform="matrix(1.000000, 0.000000, 0.000000, 1.000000, 0.000000, 0.000000)" width="190" height="5" style="fill: rgb(232, 235, 240);"/></g></g><g id="shape-391ca617-4d2f-80dc-8008-b6510f2d618a"><defs><linearGradient id="render-346-b" x1="0" y1="0" x2="1" y2="1"><stop offset="0" stop-color="#4D8EF7"/><stop offset="0.54" stop-color="#B9C9FF"/><stop offset="1" stop-color="#F28B7B"/></linearGradient></defs><g class="fills" id="fills-391ca617-4d2f-80dc-8008-b6510f2d618a"><rect width="34.19999999999982" height="5" x="1058" transform="matrix(1.000000, 0.000000, 0.000000, 1.000000, 0.000000, 0.000000)" style="fill: url(&quot;#render-346-b&quot;);" ry="2.5" fill="url(#render-346-b)" rx="2.5" y="554"/></g></g><g id="shape-391ca617-4d2f-80dc-8008-b6510f2d618b" filter="url(#render-347-c)" rx="0" ry="0" style="fill: rgb(0, 0, 0);"><defs><filter width="1.6" height="1.6" x="-0.3" id="render-347-c" data-old-y="-0.3" data-old-width="1.6" data-old-x="-0.3" y="-0.3" data-old-height="1.6"/></defs><g id="shape-391ca617-4d2f-80dc-8008-b6510f2d618c"><g class="fills" id="fills-391ca617-4d2f-80dc-8008-b6510f2d618c"><rect rx="20" ry="20" x="138" y="652" transform="matrix(1.000000, 0.000000, 0.000000, 1.000000, 0.000000, 0.000000)" width="1176" height="190" style="fill: rgb(255, 255, 255);"/></g><g id="strokes-c7024843-eb0f-805d-8008-b6679b44e1cb-391ca617-4d2f-80dc-8008-b6510f2d618c" class="strokes"><g class="stroke-shape"><rect rx="20" ry="20" x="138" y="652" transform="matrix(1.000000, 0.000000, 0.000000, 1.000000, 0.000000, 0.000000)" width="1176" height="190" style="fill: none; stroke-width: 1; stroke: rgb(228, 232, 239); stroke-opacity: 1;"/></g></g></g></g><g id="shape-391ca617-4d2f-80dc-8008-b6510f2d618d"><text x="166" y="688" font-family="Pretendard, Noto Sans KR, sans-serif" font-size="10" font-weight="800" transform="matrix(1.000000, 0.000000, 0.000000, 1.000000, 0.000000, 0.000000) " style="fill: rgb(138, 147, 158);">보관</text></g><g id="shape-391ca617-4d2f-80dc-8008-b6510f2d618f"><text x="166" y="724" font-family="Pretendard, Noto Sans KR, sans-serif" font-size="20" font-weight="800" transform="matrix(1.000000, 0.000000, 0.000000, 1.000000, 0.000000, 0.000000) " style="fill: rgb(21, 24, 33);">사내 도구 개선 검증</text></g><g id="shape-391ca617-4d2f-80dc-8008-b6510f2d6191"><text x="166" y="754" font-family="Pretendard, Noto Sans KR, sans-serif" font-size="11" font-weight="500" transform="matrix(1.000000, 0.000000, 0.000000, 1.000000, 0.000000, 0.000000) " style="fill: rgb(110, 118, 130);">기능</text></g><g id="shape-391ca617-4d2f-80dc-8008-b6510f2d6193"><text x="166" y="780" font-family="Pretendard, Noto Sans KR, sans-serif" font-size="10" font-weight="400" transform="matrix(1.000000, 0.000000, 0.000000, 1.000000, 0.000000, 0.000000) " style="fill: rgb(154, 163, 173);">완료 09.18</text></g><g id="shape-391ca617-4d2f-80dc-8008-b6510f2da5f9"><text x="1248" y="724" text-anchor="end" font-family="Pretendard, Noto Sans KR, sans-serif" font-size="28" font-weight="800" transform="matrix(1.000000, 0.000000, 0.000000, 1.000000, 0.000000, 0.000000) " style="fill: rgb(21, 24, 33);">100%</text></g><g id="shape-391ca617-4d2f-80dc-8008-b6510f2da5fb"><g class="fills" id="fills-391ca617-4d2f-80dc-8008-b6510f2da5fb"><rect rx="2.5" ry="2.5" x="1058" y="762" transform="matrix(1.000000, 0.000000, 0.000000, 1.000000, 0.000000, 0.000000)" width="190" height="5" style="fill: rgb(232, 235, 240);"/></g></g><g id="shape-391ca617-4d2f-80dc-8008-b6510f2da5fc"><defs><linearGradient id="render-355-b" x1="0" y1="0" x2="1" y2="1"><stop offset="0" stop-color="#4D8EF7"/><stop offset="0.54" stop-color="#B9C9FF"/><stop offset="1" stop-color="#F28B7B"/></linearGradient></defs><g class="fills" id="fills-391ca617-4d2f-80dc-8008-b6510f2da5fc"><rect width="190" height="5" x="1058" transform="matrix(1.000000, 0.000000, 0.000000, 1.000000, 0.000000, 0.000000)" style="fill: url(&quot;#render-355-b&quot;);" ry="2.5" fill="url(#render-355-b)" rx="2.5" y="762"/></g></g></g></g></g></g></g></g></g></svg>