<svg width="1440" xmlns="http://www.w3.org/2000/svg" height="1024" id="screenshot-391ca617-4d2f-80dc-8008-b64f13be3726" viewBox="0 0 1440 1024" xmlns:xlink="http://www.w3.org/1999/xlink" fill="none" version="1.1"><g id="shape-391ca617-4d2f-80dc-8008-b64f13be3726"><defs><clipPath id="frame-clip-391ca617-4d2f-80dc-8008-b64f13be3726-render-696" class="frame-clip frame-clip-def"><rect rx="0" ry="0" x="0" y="0" width="1440" height="1024" transform="matrix(1.000000, 0.000000, 0.000000, 1.000000, 0.000000, 0.000000)"/></clipPath></defs><g class="frame-container-wrapper"><g class="frame-container-blur"><g class="frame-container-shadows"><g clip-path="url(#frame-clip-391ca617-4d2f-80dc-8008-b64f13be3726-render-696)" fill="none"><g class="fills" id="fills-391ca617-4d2f-80dc-8008-b64f13be3726"><rect width="1440" height="1024" class="frame-background" x="0" transform="matrix(1.000000, 0.000000, 0.000000, 1.000000, 0.000000, 0.000000)" style="fill: rgb(255, 255, 255); fill-opacity: 1;" ry="0" rx="0" y="0"/></g><g class="frame-children"><g id="shape-391ca617-4d2f-80dc-8008-b65140789f17" width="1440" height="1024" rx="0" ry="0" style="fill: rgb(0, 0, 0);"><defs><linearGradient id="render-697-a" x1="0" y1="0" x2="1" y2="1"><stop offset="0" stop-color="#FBFDFF"/><stop offset="0.34" stop-color="#F4F8FF"/><stop offset="0.58" stop-color="#FBFAFF"/><stop offset="1" stop-color="#FFF6F3"/></linearGradient><linearGradient id="render-697-b" x1="0" y1="0" x2="1" y2="1"><stop offset="0" stop-color="#4D8EF7"/><stop offset="0.54" stop-color="#B9C9FF"/><stop offset="1" stop-color="#F28B7B"/></linearGradient><filter width="1.6" height="1.6" x="-0.3" id="render-697-c" data-old-y="-0.3" data-old-width="1.6" data-old-x="-0.3" y="-0.3" data-old-height="1.6"/></defs><g id="shape-391ca617-4d2f-80dc-8008-b651407afc95" style="display: none;"><g class="fills" id="fills-391ca617-4d2f-80dc-8008-b651407afc95"><rect width="1440" height="1024" x="0" transform="matrix(1.000000, 0.000000, 0.000000, 1.000000, 0.000000, 0.000000)" style="fill: none;" ry="0" fill="none" rx="0" y="0"/></g></g><g id="shape-391ca617-4d2f-80dc-8008-b651407b027a"><defs style="fill: rgb(0, 0, 0);"/></g><g id="shape-391ca617-4d2f-80dc-8008-b651407b027b"><defs><linearGradient id="render-700-a" x1="0" y1="0" x2="1" y2="1"><stop offset="0" stop-color="#FBFDFF"/><stop offset="0.34" stop-color="#F4F8FF"/><stop offset="0.58" stop-color="#FBFAFF"/><stop offset="1" stop-color="#FFF6F3"/></linearGradient></defs><g class="fills" id="fills-391ca617-4d2f-80dc-8008-b651407b027b"><rect width="1440" height="1024" x="0" transform="matrix(1.000000, 0.000000, 0.000000, 1.000000, 0.000000, 0.000000)" style="fill: url(&quot;#render-700-a&quot;);" ry="0" fill="url(#render-700-a)" rx="0" y="0"/></g></g><g id="shape-391ca617-4d2f-80dc-8008-b651407b027c"><g class="fills" id="fills-391ca617-4d2f-80dc-8008-b651407b027c"><rect rx="26" ry="26" x="34" y="34" transform="matrix(1.000000, 0.000000, 0.000000, 1.000000, 0.000000, 0.000000)" width="72" height="956" style="fill: rgb(36, 50, 75); fill-opacity: 0.035;"/></g></g><g id="shape-391ca617-4d2f-80dc-8008-b651407b027d"><g class="fills" id="fills-391ca617-4d2f-80dc-8008-b651407b027d"><rect rx="26" ry="26" x="30" y="30" transform="matrix(1.000000, 0.000000, 0.000000, 1.000000, 0.000000, 0.000000)" width="72" height="956" style="fill: rgb(36, 50, 75); fill-opacity: 0.055;"/></g></g><g id="shape-391ca617-4d2f-80dc-8008-b651407b027e"><g class="fills" id="fills-391ca617-4d2f-80dc-8008-b651407b027e"><rect rx="26" ry="26" x="26" y="24" transform="matrix(1.000000, 0.000000, 0.000000, 1.000000, 0.000000, 0.000000)" width="72" height="956" style="fill: rgb(255, 255, 255); fill-opacity: 0.78;"/></g><g id="strokes-c7024843-eb0f-805d-8008-b6679ba6d908-391ca617-4d2f-80dc-8008-b651407b027e" class="strokes"><g class="stroke-shape"><rect rx="26" ry="26" x="26" y="24" transform="matrix(1.000000, 0.000000, 0.000000, 1.000000, 0.000000, 0.000000)" width="72" height="956" style="fill: none; stroke-width: 1; stroke: rgb(255, 255, 255); stroke-opacity: 0.98;"/></g></g></g><g id="shape-391ca617-4d2f-80dc-8008-b651407b027f"><g class="fills" id="fills-391ca617-4d2f-80dc-8008-b651407b027f"><rect width="70" height="954" x="27" transform="matrix(1.000000, 0.000000, 0.000000, 1.000000, 0.000000, 0.000000)" style="fill: none;" ry="25" fill="none" rx="25" y="25"/></g><g fill="none" id="strokes-c7024843-eb0f-805d-8008-b6679ba7286d-391ca617-4d2f-80dc-8008-b651407b027f" class="strokes"><g class="stroke-shape"><rect rx="25" ry="25" x="27" y="25" transform="matrix(1.000000, 0.000000, 0.000000, 1.000000, 0.000000, 0.000000)" width="70" height="954" style="fill: none; stroke-width: 1; stroke: rgb(217, 225, 236); stroke-opacity: 0.62;"/></g></g></g><g id="shape-391ca617-4d2f-80dc-8008-b651407b79c9" style="opacity: 0.98;"><g class="fills" id="fills-391ca617-4d2f-80dc-8008-b651407b79c9"><path d="M42,27L82,27" stroke-linecap="round"/></g><g stroke-linecap="round" id="strokes-c7024843-eb0f-805d-8008-b6679ba74c1f-391ca617-4d2f-80dc-8008-b651407b79c9" class="strokes"><g class="stroke-shape"><path d="M42,27L82,27" style="fill: none; stroke-width: 1.4; stroke: rgb(255, 255, 255); stroke-opacity: 1; stroke-linecap: round;"/></g></g></g><g id="shape-391ca617-4d2f-80dc-8008-b651407b79ca"><defs><linearGradient id="render-706-b" x1="0" y1="0" x2="1" y2="1"><stop offset="0" stop-color="#4D8EF7"/><stop offset="0.54" stop-color="#B9C9FF"/><stop offset="1" stop-color="#F28B7B"/></linearGradient></defs><g class="fills" id="fills-391ca617-4d2f-80dc-8008-b651407b79ca"><rect width="42" height="42" x="41" transform="matrix(1.000000, 0.000000, 0.000000, 1.000000, 0.000000, 0.000000)" style="fill: url(&quot;#render-706-b&quot;);" ry="14" fill="url(#render-706-b)" rx="14" y="44"/></g></g><g id="shape-391ca617-4d2f-80dc-8008-b651407b79cb"><text x="62" y="71" text-anchor="middle" font-family="Pretendard, Noto Sans KR, sans-serif" font-size="16" font-weight="800" transform="matrix(1.000000, 0.000000, 0.000000, 1.000000, 0.000000, 0.000000) " style="fill: rgb(255, 255, 255);">L</text></g><g id="shape-391ca617-4d2f-80dc-8008-b651407b79cd" rx="0" ry="0" style="fill: rgb(0, 0, 0);"><g id="shape-391ca617-4d2f-80dc-8008-b651407b79ce"><text text-anchor="middle" font-family="Pretendard, Noto Sans KR, sans-serif" x="62" y="136" font-size="18" transform="matrix(1.000000, 0.000000, 0.000000, 1.000000, 0.000000, 0.000000) " style="fill: rgb(112, 121, 134);">●</text></g><g id="shape-391ca617-4d2f-80dc-8008-b651407bb909"><text text-anchor="middle" font-family="Pretendard, Noto Sans KR, sans-serif" x="62" y="155" font-size="9.5" transform="matrix(1.000000, 0.000000, 0.000000, 1.000000, 0.000000, 0.000000) " style="fill: rgb(112, 121, 134);">오늘</text></g><g id="shape-391ca617-4d2f-80dc-8008-b651407bb90b"><text text-anchor="middle" font-family="Pretendard, Noto Sans KR, sans-serif" x="62" y="204" font-size="18" transform="matrix(1.000000, 0.000000, 0.000000, 1.000000, 0.000000, 0.000000) " style="fill: rgb(112, 121, 134);">✓</text></g><g id="shape-391ca617-4d2f-80dc-8008-b651407bb90d"><text text-anchor="middle" font-family="Pretendard, Noto Sans KR, sans-serif" x="62" y="223" font-size="9.5" transform="matrix(1.000000, 0.000000, 0.000000, 1.000000, 0.000000, 0.000000) " style="fill: rgb(112, 121, 134);">업무</text></g><g id="shape-391ca617-4d2f-80dc-8008-b651407bb90f"><g class="fills" id="fills-391ca617-4d2f-80dc-8008-b651407bb90f"><rect width="56" font-family="Pretendard, Noto Sans KR, sans-serif" height="56" x="34" transform="matrix(1.000000, 0.000000, 0.000000, 1.000000, 0.000000, 0.000000)" text-anchor="middle" style="fill: rgb(238, 244, 255);" ry="15" rx="15" y="246"/></g></g><g id="shape-391ca617-4d2f-80dc-8008-b651407bb910"><text text-anchor="middle" font-family="Pretendard, Noto Sans KR, sans-serif" x="62" y="272" font-size="18" transform="matrix(1.000000, 0.000000, 0.000000, 1.000000, 0.000000, 0.000000) " style="fill: rgb(77, 142, 247);">◇</text></g><g id="shape-391ca617-4d2f-80dc-8008-b651407bb912"><text text-anchor="middle" font-family="Pretendard, Noto Sans KR, sans-serif" x="62" y="291" font-size="9.5" font-weight="700" transform="matrix(1.000000, 0.000000, 0.000000, 1.000000, 0.000000, 0.000000) " style="fill: rgb(77, 142, 247);">프로젝트</text></g><g id="shape-391ca617-4d2f-80dc-8008-b651407bb914"><text text-anchor="middle" font-family="Pretendard, Noto Sans KR, sans-serif" x="62" y="340" font-size="18" transform="matrix(1.000000, 0.000000, 0.000000, 1.000000, 0.000000, 0.000000) " style="fill: rgb(112, 121, 134);">↗</text></g><g id="shape-391ca617-4d2f-80dc-8008-b651407bb916"><text text-anchor="middle" font-family="Pretendard, Noto Sans KR, sans-serif" x="62" y="359" font-size="9.5" transform="matrix(1.000000, 0.000000, 0.000000, 1.000000, 0.000000, 0.000000) " style="fill: rgb(112, 121, 134);">기록</text></g><g id="shape-391ca617-4d2f-80dc-8008-b651407be14f"><text text-anchor="middle" font-family="Pretendard, Noto Sans KR, sans-serif" x="62" y="408" font-size="18" transform="matrix(1.000000, 0.000000, 0.000000, 1.000000, 0.000000, 0.000000) " style="fill: rgb(112, 121, 134);">⌘</text></g><g id="shape-391ca617-4d2f-80dc-8008-b651407be151"><text text-anchor="middle" font-family="Pretendard, Noto Sans KR, sans-serif" x="62" y="427" font-size="9.5" transform="matrix(1.000000, 0.000000, 0.000000, 1.000000, 0.000000, 0.000000) " style="fill: rgb(112, 121, 134);">업무 지식</text></g><g id="shape-391ca617-4d2f-80dc-8008-b651407be153"><text text-anchor="middle" font-family="Pretendard, Noto Sans KR, sans-serif" x="62" y="910" font-size="18" transform="matrix(1.000000, 0.000000, 0.000000, 1.000000, 0.000000, 0.000000) " style="fill: rgb(112, 121, 134);">⌁</text></g><g id="shape-391ca617-4d2f-80dc-8008-b651407be155"><text text-anchor="middle" font-family="Pretendard, Noto Sans KR, sans-serif" x="62" y="929" font-size="10" transform="matrix(1.000000, 0.000000, 0.000000, 1.000000, 0.000000, 0.000000) " style="fill: rgb(112, 121, 134);">임시함</text></g><g id="shape-391ca617-4d2f-80dc-8008-b651407be157"><text text-anchor="middle" font-family="Pretendard, Noto Sans KR, sans-serif" x="62" y="960" font-size="17" transform="matrix(1.000000, 0.000000, 0.000000, 1.000000, 0.000000, 0.000000) " style="fill: rgb(112, 121, 134);">◐</text></g><g id="shape-391ca617-4d2f-80dc-8008-b651407c02b9"><text text-anchor="middle" font-family="Pretendard, Noto Sans KR, sans-serif" x="62" y="979" font-size="10" transform="matrix(1.000000, 0.000000, 0.000000, 1.000000, 0.000000, 0.000000) " style="fill: rgb(112, 121, 134);">테마</text></g></g><g id="shape-391ca617-4d2f-80dc-8008-b651407c02bb"><text x="138" y="48" font-family="Pretendard, Noto Sans KR, sans-serif" font-size="11" transform="matrix(1.000000, 0.000000, 0.000000, 1.000000, 0.000000, 0.000000) " style="fill: rgb(152, 161, 171);">프로젝트 · 테스트 수행</text></g><g id="shape-391ca617-4d2f-80dc-8008-b651407c02bd"><text x="138" y="82" font-family="Pretendard, Noto Sans KR, sans-serif" font-size="30" font-weight="800" transform="matrix(1.000000, 0.000000, 0.000000, 1.000000, 0.000000, 0.000000) " style="fill: rgb(21, 24, 33);">테스트 수행</text></g><g id="shape-391ca617-4d2f-80dc-8008-b651407c02bf" filter="url(#render-726-c)" rx="0" ry="0" style="fill: rgb(0, 0, 0);"><defs><filter width="1.6" height="1.6" x="-0.3" id="render-726-c" data-old-y="-0.3" data-old-width="1.6" data-old-x="-0.3" y="-0.3" data-old-height="1.6"/></defs><g id="shape-391ca617-4d2f-80dc-8008-b651407c02c0"><g class="fills" id="fills-391ca617-4d2f-80dc-8008-b651407c02c0"><rect rx="14" ry="14" x="922" y="36" transform="matrix(1.000000, 0.000000, 0.000000, 1.000000, 0.000000, 0.000000)" width="360" height="42" style="fill: rgb(255, 255, 255); fill-opacity: 0.66;"/></g><g id="strokes-c7024843-eb0f-805d-8008-b6679baa084e-391ca617-4d2f-80dc-8008-b651407c02c0" class="strokes"><g class="stroke-shape"><rect rx="14" ry="14" x="922" y="36" transform="matrix(1.000000, 0.000000, 0.000000, 1.000000, 0.000000, 0.000000)" width="360" height="42" style="fill: none; stroke-width: 1; stroke: rgb(255, 255, 255); stroke-opacity: 1;"/></g></g></g></g><g id="shape-391ca617-4d2f-80dc-8008-b651407c02c1"><text x="942" y="62" font-family="Pretendard, Noto Sans KR, sans-serif" font-size="14" transform="matrix(1.000000, 0.000000, 0.000000, 1.000000, 0.000000, 0.000000) " style="fill: rgb(152, 161, 171);">⌕</text></g><g id="shape-391ca617-4d2f-80dc-8008-b651407c02c3"><text x="964" y="62" font-family="Pretendard, Noto Sans KR, sans-serif" font-size="12" transform="matrix(1.000000, 0.000000, 0.000000, 1.000000, 0.000000, 0.000000) " style="fill: rgb(122, 131, 142);">TC, 결과, 이슈 검색</text></g><g id="shape-391ca617-4d2f-80dc-8008-b651407c02c5"><g class="fills" id="fills-391ca617-4d2f-80dc-8008-b651407c02c5"><rect rx="6" ry="6" x="1233" y="49" transform="matrix(1.000000, 0.000000, 0.000000, 1.000000, 0.000000, 0.000000)" width="37" height="18" style="fill: rgb(245, 247, 251);"/></g><g id="strokes-c7024843-eb0f-805d-8008-b6679baa8d22-391ca617-4d2f-80dc-8008-b651407c02c5" class="strokes"><g class="stroke-shape"><rect rx="6" ry="6" x="1233" y="49" transform="matrix(1.000000, 0.000000, 0.000000, 1.000000, 0.000000, 0.000000)" width="37" height="18" style="fill: none; stroke-width: 1; stroke: rgb(228, 232, 239); stroke-opacity: 1;"/></g></g></g><g id="shape-391ca617-4d2f-80dc-8008-b651407c02c6"><text x="1251.5" y="61.5" text-anchor="middle" font-family="Pretendard, Noto Sans KR, sans-serif" font-size="8.5" transform="matrix(1.000000, 0.000000, 0.000000, 1.000000, 0.000000, 0.000000) " style="fill: rgb(153, 162, 172);">Ctrl K</text></g><g id="shape-391ca617-4d2f-80dc-8008-b651407c7b45"><g class="fills" id="fills-391ca617-4d2f-80dc-8008-b651407c7b45"><rect rx="13" ry="13" x="1294" y="36" transform="matrix(1.000000, 0.000000, 0.000000, 1.000000, 0.000000, 0.000000)" width="42" height="42" style="fill: rgb(255, 255, 255);"/></g><g id="strokes-c7024843-eb0f-805d-8008-b6679baafec6-391ca617-4d2f-80dc-8008-b651407c7b45" class="strokes"><g class="stroke-shape"><rect rx="13" ry="13" x="1294" y="36" transform="matrix(1.000000, 0.000000, 0.000000, 1.000000, 0.000000, 0.000000)" width="42" height="42" style="fill: none; stroke-width: 1; stroke: rgb(228, 232, 239); stroke-opacity: 1;"/></g></g></g><g id="shape-391ca617-4d2f-80dc-8008-b651407c7b46"><text x="1315" y="63" text-anchor="middle" font-family="Pretendard, Noto Sans KR, sans-serif" font-size="18" transform="matrix(1.000000, 0.000000, 0.000000, 1.000000, 0.000000, 0.000000) " style="fill: rgb(89, 97, 108);">＋</text></g><g id="shape-391ca617-4d2f-80dc-8008-b651407c7b48"><g class="fills" id="fills-391ca617-4d2f-80dc-8008-b651407c7b48"><rect rx="16" ry="16" x="138" y="112" transform="matrix(1.000000, 0.000000, 0.000000, 1.000000, 0.000000, 0.000000)" width="1176" height="54" style="fill: rgb(255, 255, 255);"/></g><g id="strokes-c7024843-eb0f-805d-8008-b6679bab28bd-391ca617-4d2f-80dc-8008-b651407c7b48" class="strokes"><g class="stroke-shape"><rect rx="16" ry="16" x="138" y="112" transform="matrix(1.000000, 0.000000, 0.000000, 1.000000, 0.000000, 0.000000)" width="1176" height="54" style="fill: none; stroke-width: 1; stroke: rgb(228, 232, 239); stroke-opacity: 1;"/></g></g></g><g id="shape-391ca617-4d2f-80dc-8008-b651407c7b49"><text x="237" y="144" text-anchor="middle" font-family="Pretendard, Noto Sans KR, sans-serif" font-size="11" font-weight="500" transform="matrix(1.000000, 0.000000, 0.000000, 1.000000, 0.000000, 0.000000) " style="fill: rgb(110, 118, 130);">산출물</text></g><g id="shape-391ca617-4d2f-80dc-8008-b651407c7b4b"><text x="421" y="144" text-anchor="middle" font-family="Pretendard, Noto Sans KR, sans-serif" font-size="11" font-weight="500" transform="matrix(1.000000, 0.000000, 0.000000, 1.000000, 0.000000, 0.000000) " style="fill: rgb(110, 118, 130);">요구사항 분석</text></g><g id="shape-391ca617-4d2f-80dc-8008-b651407c7b4d"><text x="617" y="144" text-anchor="middle" font-family="Pretendard, Noto Sans KR, sans-serif" font-size="11" font-weight="500" transform="matrix(1.000000, 0.000000, 0.000000, 1.000000, 0.000000, 0.000000) " style="fill: rgb(110, 118, 130);">테스트 설계</text></g><g id="shape-391ca617-4d2f-80dc-8008-b651407c7b4f"><g class="fills" id="fills-391ca617-4d2f-80dc-8008-b651407c7b4f"><rect rx="11" ry="11" x="720" y="121" transform="matrix(1.000000, 0.000000, 0.000000, 1.000000, 0.000000, 0.000000)" width="178" height="36" style="fill: rgb(238, 244, 255);"/></g></g><g id="shape-391ca617-4d2f-80dc-8008-b651407c7b50"><text x="808" y="144" text-anchor="middle" font-family="Pretendard, Noto Sans KR, sans-serif" font-size="11" font-weight="800" transform="matrix(1.000000, 0.000000, 0.000000, 1.000000, 0.000000, 0.000000) " style="fill: rgb(77, 142, 247);">테스트 수행</text></g><g id="shape-391ca617-4d2f-80dc-8008-b651407c7b52"><text x="990" y="144" text-anchor="middle" font-family="Pretendard, Noto Sans KR, sans-serif" font-size="11" font-weight="500" transform="matrix(1.000000, 0.000000, 0.000000, 1.000000, 0.000000, 0.000000) " style="fill: rgb(110, 118, 130);">이슈 / 확인사항</text></g><g id="shape-391ca617-4d2f-80dc-8008-b651407c7b54"><text x="1190" y="144" text-anchor="middle" font-family="Pretendard, Noto Sans KR, sans-serif" font-size="11" font-weight="500" transform="matrix(1.000000, 0.000000, 0.000000, 1.000000, 0.000000, 0.000000) " style="fill: rgb(110, 118, 130);">기록</text></g><g id="shape-391ca617-4d2f-80dc-8008-b651407c91c1" filter="url(#render-742-c)" rx="0" ry="0" style="fill: rgb(0, 0, 0);"><defs><filter width="1.6" height="1.6" x="-0.3" id="render-742-c" data-old-y="-0.3" data-old-width="1.6" data-old-x="-0.3" y="-0.3" data-old-height="1.6"/></defs><g id="shape-391ca617-4d2f-80dc-8008-b651407c91c2"><g class="fills" id="fills-391ca617-4d2f-80dc-8008-b651407c91c2"><rect rx="16" ry="16" x="138" y="186" transform="matrix(1.000000, 0.000000, 0.000000, 1.000000, 0.000000, 0.000000)" width="220" height="96" style="fill: rgb(255, 255, 255);"/></g><g id="strokes-c7024843-eb0f-805d-8008-b6679bac0e56-391ca617-4d2f-80dc-8008-b651407c91c2" class="strokes"><g class="stroke-shape"><rect rx="16" ry="16" x="138" y="186" transform="matrix(1.000000, 0.000000, 0.000000, 1.000000, 0.000000, 0.000000)" width="220" height="96" style="fill: none; stroke-width: 1; stroke: rgb(228, 232, 239); stroke-opacity: 1;"/></g></g></g></g><g id="shape-391ca617-4d2f-80dc-8008-b651407c91c3"><text x="156" y="218" font-family="Pretendard, Noto Sans KR, sans-serif" font-size="10" font-weight="700" transform="matrix(1.000000, 0.000000, 0.000000, 1.000000, 0.000000, 0.000000) " style="fill: rgb(154, 163, 173);">전체</text></g><g id="shape-391ca617-4d2f-80dc-8008-b651407c91c5"><text x="156" y="258" font-family="Pretendard, Noto Sans KR, sans-serif" font-size="28" font-weight="800" transform="matrix(1.000000, 0.000000, 0.000000, 1.000000, 0.000000, 0.000000) " style="fill: rgb(21, 24, 33);">212</text></g><g id="shape-391ca617-4d2f-80dc-8008-b651407c91c7" filter="url(#render-746-c)" rx="0" ry="0" style="fill: rgb(0, 0, 0);"><defs><filter width="1.6" height="1.6" x="-0.3" id="render-746-c" data-old-y="-0.3" data-old-width="1.6" data-old-x="-0.3" y="-0.3" data-old-height="1.6"/></defs><g id="shape-391ca617-4d2f-80dc-8008-b651407c91c8"><g class="fills" id="fills-391ca617-4d2f-80dc-8008-b651407c91c8"><rect rx="16" ry="16" x="376" y="186" transform="matrix(1.000000, 0.000000, 0.000000, 1.000000, 0.000000, 0.000000)" width="220" height="96" style="fill: rgb(255, 255, 255);"/></g><g id="strokes-c7024843-eb0f-805d-8008-b6679bac9769-391ca617-4d2f-80dc-8008-b651407c91c8" class="strokes"><g class="stroke-shape"><rect rx="16" ry="16" x="376" y="186" transform="matrix(1.000000, 0.000000, 0.000000, 1.000000, 0.000000, 0.000000)" width="220" height="96" style="fill: none; stroke-width: 1; stroke: rgb(228, 232, 239); stroke-opacity: 1;"/></g></g></g></g><g id="shape-391ca617-4d2f-80dc-8008-b651407c91c9"><text x="394" y="218" font-family="Pretendard, Noto Sans KR, sans-serif" font-size="10" font-weight="700" transform="matrix(1.000000, 0.000000, 0.000000, 1.000000, 0.000000, 0.000000) " style="fill: rgb(154, 163, 173);">PASS</text></g><g id="shape-391ca617-4d2f-80dc-8008-b651407c91cb"><text x="394" y="258" font-family="Pretendard, Noto Sans KR, sans-serif" font-size="28" font-weight="800" transform="matrix(1.000000, 0.000000, 0.000000, 1.000000, 0.000000, 0.000000) " style="fill: rgb(78, 140, 98);">146</text></g><g id="shape-391ca617-4d2f-80dc-8008-b651407c91cd" filter="url(#render-750-c)" rx="0" ry="0" style="fill: rgb(0, 0, 0);"><defs><filter width="1.6" height="1.6" x="-0.3" id="render-750-c" data-old-y="-0.3" data-old-width="1.6" data-old-x="-0.3" y="-0.3" data-old-height="1.6"/></defs><g id="shape-391ca617-4d2f-80dc-8008-b651407c91ce"><g class="fills" id="fills-391ca617-4d2f-80dc-8008-b651407c91ce"><rect rx="16" ry="16" x="614" y="186" transform="matrix(1.000000, 0.000000, 0.000000, 1.000000, 0.000000, 0.000000)" width="220" height="96" style="fill: rgb(255, 255, 255);"/></g><g id="strokes-c7024843-eb0f-805d-8008-b6679bad0348-391ca617-4d2f-80dc-8008-b651407c91ce" class="strokes"><g class="stroke-shape"><rect rx="16" ry="16" x="614" y="186" transform="matrix(1.000000, 0.000000, 0.000000, 1.000000, 0.000000, 0.000000)" width="220" height="96" style="fill: none; stroke-width: 1; stroke: rgb(228, 232, 239); stroke-opacity: 1;"/></g></g></g></g><g id="shape-391ca617-4d2f-80dc-8008-b651407c91cf"><text x="632" y="218" font-family="Pretendard, Noto Sans KR, sans-serif" font-size="10" font-weight="700" transform="matrix(1.000000, 0.000000, 0.000000, 1.000000, 0.000000, 0.000000) " style="fill: rgb(154, 163, 173);">FAIL</text></g><g id="shape-391ca617-4d2f-80dc-8008-b651407cc18d"><text x="632" y="258" font-family="Pretendard, Noto Sans KR, sans-serif" font-size="28" font-weight="800" transform="matrix(1.000000, 0.000000, 0.000000, 1.000000, 0.000000, 0.000000) " style="fill: rgb(212, 111, 97);">18</text></g><g id="shape-391ca617-4d2f-80dc-8008-b651407cc18f" filter="url(#render-754-c)" rx="0" ry="0" style="fill: rgb(0, 0, 0);"><defs><filter width="1.6" height="1.6" x="-0.3" id="render-754-c" data-old-y="-0.3" data-old-width="1.6" data-old-x="-0.3" y="-0.3" data-old-height="1.6"/></defs><g id="shape-391ca617-4d2f-80dc-8008-b651407cc190"><g class="fills" id="fills-391ca617-4d2f-80dc-8008-b651407cc190"><rect rx="16" ry="16" x="852" y="186" transform="matrix(1.000000, 0.000000, 0.000000, 1.000000, 0.000000, 0.000000)" width="220" height="96" style="fill: rgb(255, 255, 255);"/></g><g id="strokes-c7024843-eb0f-805d-8008-b6679bada4cb-391ca617-4d2f-80dc-8008-b651407cc190" class="strokes"><g class="stroke-shape"><rect rx="16" ry="16" x="852" y="186" transform="matrix(1.000000, 0.000000, 0.000000, 1.000000, 0.000000, 0.000000)" width="220" height="96" style="fill: none; stroke-width: 1; stroke: rgb(228, 232, 239); stroke-opacity: 1;"/></g></g></g></g><g id="shape-391ca617-4d2f-80dc-8008-b651407cc191"><text x="870" y="218" font-family="Pretendard, Noto Sans KR, sans-serif" font-size="10" font-weight="700" transform="matrix(1.000000, 0.000000, 0.000000, 1.000000, 0.000000, 0.000000) " style="fill: rgb(154, 163, 173);">BLOCKED</text></g><g id="shape-391ca617-4d2f-80dc-8008-b651407cc193"><text x="870" y="258" font-family="Pretendard, Noto Sans KR, sans-serif" font-size="28" font-weight="800" transform="matrix(1.000000, 0.000000, 0.000000, 1.000000, 0.000000, 0.000000) " style="fill: rgb(200, 138, 67);">6</text></g><g id="shape-391ca617-4d2f-80dc-8008-b651407cc195" filter="url(#render-758-c)" rx="0" ry="0" style="fill: rgb(0, 0, 0);"><defs><filter width="1.6" height="1.6" x="-0.3" id="render-758-c" data-old-y="-0.3" data-old-width="1.6" data-old-x="-0.3" y="-0.3" data-old-height="1.6"/></defs><g id="shape-391ca617-4d2f-80dc-8008-b651407cc196"><g class="fills" id="fills-391ca617-4d2f-80dc-8008-b651407cc196"><rect rx="16" ry="16" x="1090" y="186" transform="matrix(1.000000, 0.000000, 0.000000, 1.000000, 0.000000, 0.000000)" width="246" height="96" style="fill: rgb(255, 255, 255);"/></g><g id="strokes-c7024843-eb0f-805d-8008-b6679bae749a-391ca617-4d2f-80dc-8008-b651407cc196" class="strokes"><g class="stroke-shape"><rect rx="16" ry="16" x="1090" y="186" transform="matrix(1.000000, 0.000000, 0.000000, 1.000000, 0.000000, 0.000000)" width="246" height="96" style="fill: none; stroke-width: 1; stroke: rgb(228, 232, 239); stroke-opacity: 1;"/></g></g></g></g><g id="shape-391ca617-4d2f-80dc-8008-b651407cc197"><text x="1108" y="218" font-family="Pretendard, Noto Sans KR, sans-serif" font-size="10" font-weight="700" transform="matrix(1.000000, 0.000000, 0.000000, 1.000000, 0.000000, 0.000000) " style="fill: rgb(154, 163, 173);">미수행</text></g><g id="shape-391ca617-4d2f-80dc-8008-b651407cc199"><text x="1108" y="258" font-family="Pretendard, Noto Sans KR, sans-serif" font-size="28" font-weight="800" transform="matrix(1.000000, 0.000000, 0.000000, 1.000000, 0.000000, 0.000000) " style="fill: rgb(110, 118, 130);">42</text></g><g id="shape-391ca617-4d2f-80dc-8008-b651407cc19b" filter="url(#render-762-c)" rx="0" ry="0" style="fill: rgb(0, 0, 0);"><defs><filter width="1.6" height="1.6" x="-0.3" id="render-762-c" data-old-y="-0.3" data-old-width="1.6" data-old-x="-0.3" y="-0.3" data-old-height="1.6"/></defs><g id="shape-391ca617-4d2f-80dc-8008-b651407d1f93"><g class="fills" id="fills-391ca617-4d2f-80dc-8008-b651407d1f93"><rect rx="18" ry="18" x="138" y="304" transform="matrix(1.000000, 0.000000, 0.000000, 1.000000, 0.000000, 0.000000)" width="1176" height="646" style="fill: rgb(255, 255, 255);"/></g><g id="strokes-c7024843-eb0f-805d-8008-b6679baef8bc-391ca617-4d2f-80dc-8008-b651407d1f93" class="strokes"><g class="stroke-shape"><rect rx="18" ry="18" x="138" y="304" transform="matrix(1.000000, 0.000000, 0.000000, 1.000000, 0.000000, 0.000000)" width="1176" height="646" style="fill: none; stroke-width: 1; stroke: rgb(228, 232, 239); stroke-opacity: 1;"/></g></g></g></g><g id="shape-391ca617-4d2f-80dc-8008-b651407d1f94"><text x="160" y="338" font-family="Pretendard, Noto Sans KR, sans-serif" font-size="15" font-weight="800" transform="matrix(1.000000, 0.000000, 0.000000, 1.000000, 0.000000, 0.000000) " style="fill: rgb(21, 24, 33);">수행 목록</text></g><g id="shape-391ca617-4d2f-80dc-8008-b651407d1f96"><text x="1290" y="338" text-anchor="end" font-family="Pretendard, Noto Sans KR, sans-serif" font-size="10" font-weight="400" transform="matrix(1.000000, 0.000000, 0.000000, 1.000000, 0.000000, 0.000000) " style="fill: rgb(154, 163, 173);">Android / iOS</text></g><g id="shape-391ca617-4d2f-80dc-8008-b651407d1f98"><g class="fills" id="fills-391ca617-4d2f-80dc-8008-b651407d1f98"><rect rx="9" ry="9" x="160" y="360" transform="matrix(1.000000, 0.000000, 0.000000, 1.000000, 0.000000, 0.000000)" width="1132" height="38" style="fill: rgb(246, 248, 251);"/></g></g><g id="shape-391ca617-4d2f-80dc-8008-b651407d1f99"><text x="168" y="384" font-family="Pretendard, Noto Sans KR, sans-serif" font-size="9.5" font-weight="700" transform="matrix(1.000000, 0.000000, 0.000000, 1.000000, 0.000000, 0.000000) " style="fill: rgb(110, 118, 130);">ID</text></g><g id="shape-391ca617-4d2f-80dc-8008-b651407d1f9b"><text x="258" y="384" font-family="Pretendard, Noto Sans KR, sans-serif" font-size="9.5" font-weight="700" transform="matrix(1.000000, 0.000000, 0.000000, 1.000000, 0.000000, 0.000000) " style="fill: rgb(110, 118, 130);">테스트 항목</text></g><g id="shape-391ca617-4d2f-80dc-8008-b651407d1f9d"><text x="780" y="384" font-family="Pretendard, Noto Sans KR, sans-serif" font-size="9.5" font-weight="700" transform="matrix(1.000000, 0.000000, 0.000000, 1.000000, 0.000000, 0.000000) " style="fill: rgb(110, 118, 130);">Android</text></g><g id="shape-391ca617-4d2f-80dc-8008-b651407d1f9f"><text x="900" y="384" font-family="Pretendard, Noto Sans KR, sans-serif" font-size="9.5" font-weight="700" transform="matrix(1.000000, 0.000000, 0.000000, 1.000000, 0.000000, 0.000000) " style="fill: rgb(110, 118, 130);">iOS</text></g><g id="shape-391ca617-4d2f-80dc-8008-b651407d1fa1"><text x="1018" y="384" font-family="Pretendard, Noto Sans KR, sans-serif" font-size="9.5" font-weight="700" transform="matrix(1.000000, 0.000000, 0.000000, 1.000000, 0.000000, 0.000000) " style="fill: rgb(110, 118, 130);">Issue</text></g><g id="shape-391ca617-4d2f-80dc-8008-b651407d1fa3"><text x="1135" y="384" font-family="Pretendard, Noto Sans KR, sans-serif" font-size="9.5" font-weight="700" transform="matrix(1.000000, 0.000000, 0.000000, 1.000000, 0.000000, 0.000000) " style="fill: rgb(110, 118, 130);">메모</text></g><g id="shape-391ca617-4d2f-80dc-8008-b651407d1fa5"><g class="fills" id="fills-391ca617-4d2f-80dc-8008-b651407d1fa5"><path d="M160,410L1292,410"/></g><g id="strokes-c7024843-eb0f-805d-8008-b6679bafe992-391ca617-4d2f-80dc-8008-b651407d1fa5" class="strokes"><g class="stroke-shape"><path d="M160,410L1292,410" style="fill: none; stroke-width: 1; stroke: rgb(232, 235, 240); stroke-opacity: 1;"/></g></g></g><g id="shape-391ca617-4d2f-80dc-8008-b651407d1fa6"><text x="168" y="434" font-family="Pretendard, Noto Sans KR, sans-serif" font-size="9.5" font-weight="500" transform="matrix(1.000000, 0.000000, 0.000000, 1.000000, 0.000000, 0.000000) " style="fill: rgb(21, 24, 33);">SIGN-001</text></g><g id="shape-391ca617-4d2f-80dc-8008-b651407d4e27"><text x="258" y="434" font-family="Pretendard, Noto Sans KR, sans-serif" font-size="10.5" font-weight="700" transform="matrix(1.000000, 0.000000, 0.000000, 1.000000, 0.000000, 0.000000) " style="fill: rgb(21, 24, 33);">유효한 비밀번호 입력 시 가입 가능</text></g><g id="shape-391ca617-4d2f-80dc-8008-b651407d4e29"><g class="fills" id="fills-391ca617-4d2f-80dc-8008-b651407d4e29"><rect rx="9" ry="9" x="772" y="417" transform="matrix(1.000000, 0.000000, 0.000000, 1.000000, 0.000000, 0.000000)" width="76" height="28" style="fill: rgb(247, 249, 252);"/></g><g id="strokes-c7024843-eb0f-805d-8008-b6679bb0434f-391ca617-4d2f-80dc-8008-b651407d4e29" class="strokes"><g class="stroke-shape"><rect rx="9" ry="9" x="772" y="417" transform="matrix(1.000000, 0.000000, 0.000000, 1.000000, 0.000000, 0.000000)" width="76" height="28" style="fill: none; stroke-width: 1; stroke: rgb(228, 232, 239); stroke-opacity: 1;"/></g></g></g><g id="shape-391ca617-4d2f-80dc-8008-b651407d4e2a"><text x="810" y="435" text-anchor="middle" font-family="Pretendard, Noto Sans KR, sans-serif" font-size="9.5" font-weight="700" transform="matrix(1.000000, 0.000000, 0.000000, 1.000000, 0.000000, 0.000000) " style="fill: rgb(78, 140, 98);">PASS</text></g><g id="shape-391ca617-4d2f-80dc-8008-b651407d4e2c"><g class="fills" id="fills-391ca617-4d2f-80dc-8008-b651407d4e2c"><rect rx="9" ry="9" x="892" y="417" transform="matrix(1.000000, 0.000000, 0.000000, 1.000000, 0.000000, 0.000000)" width="76" height="28" style="fill: rgb(247, 249, 252);"/></g><g id="strokes-c7024843-eb0f-805d-8008-b6679bb09117-391ca617-4d2f-80dc-8008-b651407d4e2c" class="strokes"><g class="stroke-shape"><rect rx="9" ry="9" x="892" y="417" transform="matrix(1.000000, 0.000000, 0.000000, 1.000000, 0.000000, 0.000000)" width="76" height="28" style="fill: none; stroke-width: 1; stroke: rgb(228, 232, 239); stroke-opacity: 1;"/></g></g></g><g id="shape-391ca617-4d2f-80dc-8008-b651407d4e2d"><text x="930" y="435" text-anchor="middle" font-family="Pretendard, Noto Sans KR, sans-serif" font-size="9.5" font-weight="700" transform="matrix(1.000000, 0.000000, 0.000000, 1.000000, 0.000000, 0.000000) " style="fill: rgb(78, 140, 98);">PASS</text></g><g id="shape-391ca617-4d2f-80dc-8008-b651407d4e2f"><text x="1018" y="434" font-family="Pretendard, Noto Sans KR, sans-serif" font-size="9.5" font-weight="600" transform="matrix(1.000000, 0.000000, 0.000000, 1.000000, 0.000000, 0.000000) " style="fill: rgb(154, 163, 173);">-</text></g><g id="shape-391ca617-4d2f-80dc-8008-b651407d4e31"><g class="fills" id="fills-391ca617-4d2f-80dc-8008-b651407d4e31"><path d="M160,496L1292,496"/></g><g id="strokes-c7024843-eb0f-805d-8008-b6679bb0f0c4-391ca617-4d2f-80dc-8008-b651407d4e31" class="strokes"><g class="stroke-shape"><path d="M160,496L1292,496" style="fill: none; stroke-width: 1; stroke: rgb(232, 235, 240); stroke-opacity: 1;"/></g></g></g><g id="shape-391ca617-4d2f-80dc-8008-b651407d4e32"><text x="168" y="520" font-family="Pretendard, Noto Sans KR, sans-serif" font-size="9.5" font-weight="500" transform="matrix(1.000000, 0.000000, 0.000000, 1.000000, 0.000000, 0.000000) " style="fill: rgb(21, 24, 33);">SIGN-002</text></g><g id="shape-391ca617-4d2f-80dc-8008-b651407d4e34"><text x="258" y="520" font-family="Pretendard, Noto Sans KR, sans-serif" font-size="10.5" font-weight="700" transform="matrix(1.000000, 0.000000, 0.000000, 1.000000, 0.000000, 0.000000) " style="fill: rgb(21, 24, 33);">최소 길이 8자 입력</text></g><g id="shape-391ca617-4d2f-80dc-8008-b651407d4e36"><g class="fills" id="fills-391ca617-4d2f-80dc-8008-b651407d4e36"><rect rx="9" ry="9" x="772" y="503" transform="matrix(1.000000, 0.000000, 0.000000, 1.000000, 0.000000, 0.000000)" width="76" height="28" style="fill: rgb(247, 249, 252);"/></g><g id="strokes-c7024843-eb0f-805d-8008-b6679bb17596-391ca617-4d2f-80dc-8008-b651407d4e36" class="strokes"><g class="stroke-shape"><rect rx="9" ry="9" x="772" y="503" transform="matrix(1.000000, 0.000000, 0.000000, 1.000000, 0.000000, 0.000000)" width="76" height="28" style="fill: none; stroke-width: 1; stroke: rgb(228, 232, 239); stroke-opacity: 1;"/></g></g></g><g id="shape-391ca617-4d2f-80dc-8008-b651407d4e37"><text x="810" y="521" text-anchor="middle" font-family="Pretendard, Noto Sans KR, sans-serif" font-size="9.5" font-weight="700" transform="matrix(1.000000, 0.000000, 0.000000, 1.000000, 0.000000, 0.000000) " style="fill: rgb(78, 140, 98);">PASS</text></g><g id="shape-391ca617-4d2f-80dc-8008-b651407d4e39"><g class="fills" id="fills-391ca617-4d2f-80dc-8008-b651407d4e39"><rect rx="9" ry="9" x="892" y="503" transform="matrix(1.000000, 0.000000, 0.000000, 1.000000, 0.000000, 0.000000)" width="76" height="28" style="fill: rgb(247, 249, 252);"/></g><g id="strokes-c7024843-eb0f-805d-8008-b6679bb188f3-391ca617-4d2f-80dc-8008-b651407d4e39" class="strokes"><g class="stroke-shape"><rect rx="9" ry="9" x="892" y="503" transform="matrix(1.000000, 0.000000, 0.000000, 1.000000, 0.000000, 0.000000)" width="76" height="28" style="fill: none; stroke-width: 1; stroke: rgb(228, 232, 239); stroke-opacity: 1;"/></g></g></g><g id="shape-391ca617-4d2f-80dc-8008-b651407d8190"><text x="930" y="521" text-anchor="middle" font-family="Pretendard, Noto Sans KR, sans-serif" font-size="9.5" font-weight="700" transform="matrix(1.000000, 0.000000, 0.000000, 1.000000, 0.000000, 0.000000) " style="fill: rgb(212, 111, 97);">FAIL</text></g><g id="shape-391ca617-4d2f-80dc-8008-b651407d8192"><text x="1018" y="520" font-family="Pretendard, Noto Sans KR, sans-serif" font-size="9.5" font-weight="600" transform="matrix(1.000000, 0.000000, 0.000000, 1.000000, 0.000000, 0.000000) " style="fill: rgb(77, 142, 247);">BUG-014</text></g><g id="shape-391ca617-4d2f-80dc-8008-b651407d8194"><text x="1135" y="520" font-family="Pretendard, Noto Sans KR, sans-serif" font-size="9.5" font-weight="400" transform="matrix(1.000000, 0.000000, 0.000000, 1.000000, 0.000000, 0.000000) " style="fill: rgb(110, 118, 130);">iOS 문구 상이</text></g><g id="shape-391ca617-4d2f-80dc-8008-b651407d8196"><g class="fills" id="fills-391ca617-4d2f-80dc-8008-b651407d8196"><path d="M160,582L1292,582"/></g><g id="strokes-c7024843-eb0f-805d-8008-b6679bb22b16-391ca617-4d2f-80dc-8008-b651407d8196" class="strokes"><g class="stroke-shape"><path d="M160,582L1292,582" style="fill: none; stroke-width: 1; stroke: rgb(232, 235, 240); stroke-opacity: 1;"/></g></g></g><g id="shape-391ca617-4d2f-80dc-8008-b651407d8197"><text x="168" y="606" font-family="Pretendard, Noto Sans KR, sans-serif" font-size="9.5" font-weight="500" transform="matrix(1.000000, 0.000000, 0.000000, 1.000000, 0.000000, 0.000000) " style="fill: rgb(21, 24, 33);">SIGN-003</text></g><g id="shape-391ca617-4d2f-80dc-8008-b651407d8199"><text x="258" y="606" font-family="Pretendard, Noto Sans KR, sans-serif" font-size="10.5" font-weight="700" transform="matrix(1.000000, 0.000000, 0.000000, 1.000000, 0.000000, 0.000000) " style="fill: rgb(21, 24, 33);">영문 미포함 시 오류 노출</text></g><g id="shape-391ca617-4d2f-80dc-8008-b651407d819b"><g class="fills" id="fills-391ca617-4d2f-80dc-8008-b651407d819b"><rect rx="9" ry="9" x="772" y="589" transform="matrix(1.000000, 0.000000, 0.000000, 1.000000, 0.000000, 0.000000)" width="76" height="28" style="fill: rgb(247, 249, 252);"/></g><g id="strokes-c7024843-eb0f-805d-8008-b6679bb273d9-391ca617-4d2f-80dc-8008-b651407d819b" class="strokes"><g class="stroke-shape"><rect rx="9" ry="9" x="772" y="589" transform="matrix(1.000000, 0.000000, 0.000000, 1.000000, 0.000000, 0.000000)" width="76" height="28" style="fill: none; stroke-width: 1; stroke: rgb(228, 232, 239); stroke-opacity: 1;"/></g></g></g><g id="shape-391ca617-4d2f-80dc-8008-b651407d819c"><text x="810" y="607" text-anchor="middle" font-family="Pretendard, Noto Sans KR, sans-serif" font-size="9.5" font-weight="700" transform="matrix(1.000000, 0.000000, 0.000000, 1.000000, 0.000000, 0.000000) " style="fill: rgb(78, 140, 98);">PASS</text></g><g id="shape-391ca617-4d2f-80dc-8008-b651407d819e"><g class="fills" id="fills-391ca617-4d2f-80dc-8008-b651407d819e"><rect rx="9" ry="9" x="892" y="589" transform="matrix(1.000000, 0.000000, 0.000000, 1.000000, 0.000000, 0.000000)" width="76" height="28" style="fill: rgb(247, 249, 252);"/></g><g id="strokes-c7024843-eb0f-805d-8008-b6679bb28e9f-391ca617-4d2f-80dc-8008-b651407d819e" class="strokes"><g class="stroke-shape"><rect rx="9" ry="9" x="892" y="589" transform="matrix(1.000000, 0.000000, 0.000000, 1.000000, 0.000000, 0.000000)" width="76" height="28" style="fill: none; stroke-width: 1; stroke: rgb(228, 232, 239); stroke-opacity: 1;"/></g></g></g><g id="shape-391ca617-4d2f-80dc-8008-b651407d819f"><text x="930" y="607" text-anchor="middle" font-family="Pretendard, Noto Sans KR, sans-serif" font-size="9.5" font-weight="700" transform="matrix(1.000000, 0.000000, 0.000000, 1.000000, 0.000000, 0.000000) " style="fill: rgb(78, 140, 98);">PASS</text></g><g id="shape-391ca617-4d2f-80dc-8008-b651407d81a1"><text x="1018" y="606" font-family="Pretendard, Noto Sans KR, sans-serif" font-size="9.5" font-weight="600" transform="matrix(1.000000, 0.000000, 0.000000, 1.000000, 0.000000, 0.000000) " style="fill: rgb(154, 163, 173);">-</text></g><g id="shape-391ca617-4d2f-80dc-8008-b651407dd834"><g class="fills" id="fills-391ca617-4d2f-80dc-8008-b651407dd834"><path d="M160,668L1292,668"/></g><g id="strokes-c7024843-eb0f-805d-8008-b6679bb30c44-391ca617-4d2f-80dc-8008-b651407dd834" class="strokes"><g class="stroke-shape"><path d="M160,668L1292,668" style="fill: none; stroke-width: 1; stroke: rgb(232, 235, 240); stroke-opacity: 1;"/></g></g></g><g id="shape-391ca617-4d2f-80dc-8008-b651407dd835"><text x="168" y="692" font-family="Pretendard, Noto Sans KR, sans-serif" font-size="9.5" font-weight="500" transform="matrix(1.000000, 0.000000, 0.000000, 1.000000, 0.000000, 0.000000) " style="fill: rgb(21, 24, 33);">LOGIN-018</text></g><g id="shape-391ca617-4d2f-80dc-8008-b651407dd837"><text x="258" y="692" font-family="Pretendard, Noto Sans KR, sans-serif" font-size="10.5" font-weight="700" transform="matrix(1.000000, 0.000000, 0.000000, 1.000000, 0.000000, 0.000000) " style="fill: rgb(21, 24, 33);">로그인 실패 정책 확인</text></g><g id="shape-391ca617-4d2f-80dc-8008-b651407dd839"><g class="fills" id="fills-391ca617-4d2f-80dc-8008-b651407dd839"><rect rx="9" ry="9" x="772" y="675" transform="matrix(1.000000, 0.000000, 0.000000, 1.000000, 0.000000, 0.000000)" width="76" height="28" style="fill: rgb(247, 249, 252);"/></g><g id="strokes-c7024843-eb0f-805d-8008-b6679bb345e1-391ca617-4d2f-80dc-8008-b651407dd839" class="strokes"><g class="stroke-shape"><rect rx="9" ry="9" x="772" y="675" transform="matrix(1.000000, 0.000000, 0.000000, 1.000000, 0.000000, 0.000000)" width="76" height="28" style="fill: none; stroke-width: 1; stroke: rgb(228, 232, 239); stroke-opacity: 1;"/></g></g></g><g id="shape-391ca617-4d2f-80dc-8008-b651407dd83a"><text x="810" y="693" text-anchor="middle" font-family="Pretendard, Noto Sans KR, sans-serif" font-size="9.5" font-weight="700" transform="matrix(1.000000, 0.000000, 0.000000, 1.000000, 0.000000, 0.000000) " style="fill: rgb(200, 138, 67);">BLOCKED</text></g><g id="shape-391ca617-4d2f-80dc-8008-b651407dd83c"><g class="fills" id="fills-391ca617-4d2f-80dc-8008-b651407dd83c"><rect rx="9" ry="9" x="892" y="675" transform="matrix(1.000000, 0.000000, 0.000000, 1.000000, 0.000000, 0.000000)" width="76" height="28" style="fill: rgb(247, 249, 252);"/></g><g id="strokes-c7024843-eb0f-805d-8008-b6679bb38b73-391ca617-4d2f-80dc-8008-b651407dd83c" class="strokes"><g class="stroke-shape"><rect rx="9" ry="9" x="892" y="675" transform="matrix(1.000000, 0.000000, 0.000000, 1.000000, 0.000000, 0.000000)" width="76" height="28" style="fill: none; stroke-width: 1; stroke: rgb(228, 232, 239); stroke-opacity: 1;"/></g></g></g><g id="shape-391ca617-4d2f-80dc-8008-b651407dd83d"><text x="930" y="693" text-anchor="middle" font-family="Pretendard, Noto Sans KR, sans-serif" font-size="9.5" font-weight="700" transform="matrix(1.000000, 0.000000, 0.000000, 1.000000, 0.000000, 0.000000) " style="fill: rgb(200, 138, 67);">BLOCKED</text></g><g id="shape-391ca617-4d2f-80dc-8008-b651407dd83f"><text x="1018" y="692" font-family="Pretendard, Noto Sans KR, sans-serif" font-size="9.5" font-weight="600" transform="matrix(1.000000, 0.000000, 0.000000, 1.000000, 0.000000, 0.000000) " style="fill: rgb(154, 163, 173);">-</text></g><g id="shape-391ca617-4d2f-80dc-8008-b651407dd841"><text x="1135" y="692" font-family="Pretendard, Noto Sans KR, sans-serif" font-size="9.5" font-weight="400" transform="matrix(1.000000, 0.000000, 0.000000, 1.000000, 0.000000, 0.000000) " style="fill: rgb(110, 118, 130);">기획 확인 대기</text></g><g id="shape-391ca617-4d2f-80dc-8008-b651407dd843"><g class="fills" id="fills-391ca617-4d2f-80dc-8008-b651407dd843"><path d="M160,754L1292,754"/></g><g id="strokes-c7024843-eb0f-805d-8008-b6679bb43fac-391ca617-4d2f-80dc-8008-b651407dd843" class="strokes"><g class="stroke-shape"><path d="M160,754L1292,754" style="fill: none; stroke-width: 1; stroke: rgb(232, 235, 240); stroke-opacity: 1;"/></g></g></g><g id="shape-391ca617-4d2f-80dc-8008-b651407dd844"><text x="168" y="778" font-family="Pretendard, Noto Sans KR, sans-serif" font-size="9.5" font-weight="500" transform="matrix(1.000000, 0.000000, 0.000000, 1.000000, 0.000000, 0.000000) " style="fill: rgb(21, 24, 33);">LOGIN-019</text></g><g id="shape-391ca617-4d2f-80dc-8008-b651407e224a"><text x="258" y="778" font-family="Pretendard, Noto Sans KR, sans-serif" font-size="10.5" font-weight="700" transform="matrix(1.000000, 0.000000, 0.000000, 1.000000, 0.000000, 0.000000) " style="fill: rgb(21, 24, 33);">계정 잠금 동작</text></g><g id="shape-391ca617-4d2f-80dc-8008-b651407e224c"><g class="fills" id="fills-391ca617-4d2f-80dc-8008-b651407e224c"><rect rx="9" ry="9" x="772" y="761" transform="matrix(1.000000, 0.000000, 0.000000, 1.000000, 0.000000, 0.000000)" width="76" height="28" style="fill: rgb(247, 249, 252);"/></g><g id="strokes-c7024843-eb0f-805d-8008-b6679bb486d6-391ca617-4d2f-80dc-8008-b651407e224c" class="strokes"><g class="stroke-shape"><rect rx="9" ry="9" x="772" y="761" transform="matrix(1.000000, 0.000000, 0.000000, 1.000000, 0.000000, 0.000000)" width="76" height="28" style="fill: none; stroke-width: 1; stroke: rgb(228, 232, 239); stroke-opacity: 1;"/></g></g></g><g id="shape-391ca617-4d2f-80dc-8008-b651407e224d"><text x="810" y="779" text-anchor="middle" font-family="Pretendard, Noto Sans KR, sans-serif" font-size="9.5" font-weight="700" transform="matrix(1.000000, 0.000000, 0.000000, 1.000000, 0.000000, 0.000000) " style="fill: rgb(124, 135, 148);">미수행</text></g><g id="shape-391ca617-4d2f-80dc-8008-b651407e224f"><g class="fills" id="fills-391ca617-4d2f-80dc-8008-b651407e224f"><rect rx="9" ry="9" x="892" y="761" transform="matrix(1.000000, 0.000000, 0.000000, 1.000000, 0.000000, 0.000000)" width="76" height="28" style="fill: rgb(247, 249, 252);"/></g><g id="strokes-c7024843-eb0f-805d-8008-b6679bb4f4bd-391ca617-4d2f-80dc-8008-b651407e224f" class="strokes"><g class="stroke-shape"><rect rx="9" ry="9" x="892" y="761" transform="matrix(1.000000, 0.000000, 0.000000, 1.000000, 0.000000, 0.000000)" width="76" height="28" style="fill: none; stroke-width: 1; stroke: rgb(228, 232, 239); stroke-opacity: 1;"/></g></g></g><g id="shape-391ca617-4d2f-80dc-8008-b651407e2250"><text x="930" y="779" text-anchor="middle" font-family="Pretendard, Noto Sans KR, sans-serif" font-size="9.5" font-weight="700" transform="matrix(1.000000, 0.000000, 0.000000, 1.000000, 0.000000, 0.000000) " style="fill: rgb(124, 135, 148);">미수행</text></g><g id="shape-391ca617-4d2f-80dc-8008-b651407e2252"><text x="1018" y="778" font-family="Pretendard, Noto Sans KR, sans-serif" font-size="9.5" font-weight="600" transform="matrix(1.000000, 0.000000, 0.000000, 1.000000, 0.000000, 0.000000) " style="fill: rgb(154, 163, 173);">-</text></g><g id="shape-391ca617-4d2f-80dc-8008-b651407e2254"><g class="fills" id="fills-391ca617-4d2f-80dc-8008-b651407e2254"><rect rx="14" ry="14" x="160" y="866" transform="matrix(1.000000, 0.000000, 0.000000, 1.000000, 0.000000, 0.000000)" width="1132" height="58" style="fill: rgb(248, 250, 253);"/></g><g id="strokes-c7024843-eb0f-805d-8008-b6679bb55c0d-391ca617-4d2f-80dc-8008-b651407e2254" class="strokes"><g class="stroke-shape"><rect rx="14" ry="14" x="160" y="866" transform="matrix(1.000000, 0.000000, 0.000000, 1.000000, 0.000000, 0.000000)" width="1132" height="58" style="fill: none; stroke-width: 1; stroke: rgb(228, 232, 239); stroke-opacity: 1;"/></g></g></g><g id="shape-391ca617-4d2f-80dc-8008-b651407e2255"><text x="182" y="900" font-family="Pretendard, Noto Sans KR, sans-serif" font-size="10.5" font-weight="600" transform="matrix(1.000000, 0.000000, 0.000000, 1.000000, 0.000000, 0.000000) " style="fill: rgb(110, 118, 130);">실제 검증은 수동 수행을 기준으로 하고, Looma는 결과/이슈/근거 기록을 빠르게 남기는 데 집중합니다.</text></g></g></g></g></g></g></g></g></svg>